<mxfile host="app.diagrams.net" modified="2024-02-15T12:30:02.289Z" agent="Mozilla/5.0 (Windows NT 10.0; Win64; x64) AppleWebKit/537.36 (KHTML, like Gecko) Chrome/121.0.0.0 Safari/537.36" etag="jyWMyLZXkAVafsJXFfyN" version="23.1.2" type="github">
  <diagram name="Page-1" id="Z2lgsUsvQRlrC3JUmSmT">
    <mxGraphModel dx="1050" dy="522" grid="1" gridSize="10" guides="1" tooltips="1" connect="1" arrows="1" fold="1" page="1" pageScale="1" pageWidth="850" pageHeight="1100" math="0" shadow="0">
      <root>
        <mxCell id="0" />
        <mxCell id="1" parent="0" />
        <mxCell id="p96NarCAE7JXpdNmkWpx-2" value="&lt;font color=&quot;#ffffff&quot;&gt;Workday FInancials&lt;/font&gt;" style="shape=cylinder3;whiteSpace=wrap;html=1;boundedLbl=1;backgroundOutline=1;size=15;fillColor=#fa6800;fontColor=#000000;strokeColor=#C73500;shadow=1;" vertex="1" parent="1">
          <mxGeometry x="48" y="285" width="100" height="80" as="geometry" />
        </mxCell>
        <mxCell id="p96NarCAE7JXpdNmkWpx-3" value="&lt;font color=&quot;#1a1a1a&quot;&gt;FIS&lt;br&gt;Central Treasury System of JET&lt;/font&gt;" style="rounded=1;whiteSpace=wrap;html=1;fillColor=#9AC7BF;shadow=1;" vertex="1" parent="1">
          <mxGeometry x="440" y="290" width="120" height="60" as="geometry" />
        </mxCell>
        <mxCell id="p96NarCAE7JXpdNmkWpx-5" value="" style="shape=flexArrow;endArrow=classic;html=1;rounded=0;fillColor=#cfc9c9;gradientColor=none;strokeColor=none;shadow=1;" edge="1" parent="1">
          <mxGeometry width="50" height="50" relative="1" as="geometry">
            <mxPoint x="150" y="325" as="sourcePoint" />
            <mxPoint x="290" y="324.5" as="targetPoint" />
          </mxGeometry>
        </mxCell>
        <mxCell id="p96NarCAE7JXpdNmkWpx-6" value="BANK" style="shape=cylinder3;whiteSpace=wrap;html=1;boundedLbl=1;backgroundOutline=1;size=15;fillColor=#76608a;fontColor=#ffffff;strokeColor=#432D57;" vertex="1" parent="1">
          <mxGeometry x="630" y="180" width="80" height="70" as="geometry" />
        </mxCell>
        <mxCell id="p96NarCAE7JXpdNmkWpx-7" value="BANK" style="shape=cylinder3;whiteSpace=wrap;html=1;boundedLbl=1;backgroundOutline=1;size=15;fillColor=#76608a;fontColor=#ffffff;strokeColor=#432D57;" vertex="1" parent="1">
          <mxGeometry x="700" y="285" width="80" height="70" as="geometry" />
        </mxCell>
        <mxCell id="p96NarCAE7JXpdNmkWpx-8" value="BANK" style="shape=cylinder3;whiteSpace=wrap;html=1;boundedLbl=1;backgroundOutline=1;size=15;fillColor=#76608a;fontColor=#ffffff;strokeColor=#432D57;" vertex="1" parent="1">
          <mxGeometry x="670" y="380" width="80" height="70" as="geometry" />
        </mxCell>
        <mxCell id="p96NarCAE7JXpdNmkWpx-9" value="" style="endArrow=classic;html=1;rounded=0;entryX=0;entryY=0;entryDx=0;entryDy=45;entryPerimeter=0;exitX=1;exitY=0;exitDx=0;exitDy=0;shadow=1;strokeWidth=2;strokeColor=#66B2FF;" edge="1" parent="1" source="p96NarCAE7JXpdNmkWpx-3" target="p96NarCAE7JXpdNmkWpx-6">
          <mxGeometry width="50" height="50" relative="1" as="geometry">
            <mxPoint x="400" y="410" as="sourcePoint" />
            <mxPoint x="450" y="360" as="targetPoint" />
          </mxGeometry>
        </mxCell>
        <mxCell id="p96NarCAE7JXpdNmkWpx-10" value="" style="endArrow=classic;html=1;rounded=0;exitX=1;exitY=0.5;exitDx=0;exitDy=0;shadow=1;strokeWidth=2;strokeColor=#66B2FF;" edge="1" parent="1" source="p96NarCAE7JXpdNmkWpx-3">
          <mxGeometry width="50" height="50" relative="1" as="geometry">
            <mxPoint x="570" y="300" as="sourcePoint" />
            <mxPoint x="700" y="320" as="targetPoint" />
          </mxGeometry>
        </mxCell>
        <mxCell id="p96NarCAE7JXpdNmkWpx-11" value="" style="endArrow=classic;html=1;rounded=0;exitX=1;exitY=1;exitDx=0;exitDy=0;entryX=0;entryY=0.5;entryDx=0;entryDy=0;entryPerimeter=0;shadow=1;strokeWidth=2;strokeColor=#66B2FF;" edge="1" parent="1" source="p96NarCAE7JXpdNmkWpx-3" target="p96NarCAE7JXpdNmkWpx-8">
          <mxGeometry width="50" height="50" relative="1" as="geometry">
            <mxPoint x="570" y="330" as="sourcePoint" />
            <mxPoint x="710" y="330" as="targetPoint" />
          </mxGeometry>
        </mxCell>
        <mxCell id="p96NarCAE7JXpdNmkWpx-12" value="" style="shape=image;verticalLabelPosition=bottom;labelBackgroundColor=default;verticalAlign=top;aspect=fixed;imageAspect=0;image=data:image/png,iVBORw0KGgoAAAANSUhEUgAAAgAAAAIACAYAAAD0eNT6AAAAAXNSR0IArs4c6QAAIABJREFUeAHt3W2QZFd93/HBKSeVshMnlbjiV3mRqryJXZVyqEpSiSupSlGkxPTs3BGMQQgQT5YhEFMQCC5hZBEcm+AqExzH9mKsgE2Btba6Z1di9TAECT2BbSSktdADQhKSgrSgJ7RarXa3Ym5yF7c0O9uzc7v7nNvn3PNR1Whmerpvn/s7v/P/fc+ZOWeXlvxHAQpQgAIUoAAFKEABClCAAhSgAAUoQAEKUIACFKAABShAAQpQgAIUoAAFKEABClCAAhSgAAUoQAEKUIACFKAABShAAQpQgAIUoAAFKEABClCAAhSgAAUoQAEKUIACFKAABShAAQpQgAIUoAAFKEABCvRUgXP2rf/4yuXn/svl4dq5g43VteVR9dKX7Vv/sZ7ertuiAAUoQAEKFKhAvfSSlQMrP7k8qi4cDNc+PRhV9w1GVT3h48TyqNpYGVVVgSq5ZQpQgAIUoEDeCrx074U/3MzoB6PqXSsb1b7BqHp8QthPAoCtj10/+JNX/uO8ldB6ClCAAhSgQI8V2LN/zz8YbKyurAzXPrK8sXrTYFQdnyHwt4b/+OvvDUbVP++xdG6NAhSgAAUokIkC7ZfzxyE+7+enBsO1f5qJOppJAQpQgAIU6IcCgZbz54WAQ007+qGou6AABShAAQokqMAr9q3/RPOX+cvDtd8YbKx+eWVUnQy0nD8XBKxsrL43Qbk0iQIUoAAFKJCnAsuXn/uPBhurb1gZVXuXR9XXB6Pq+ykE/oQ2PLRUL70kT5W1mgIUoAAFKLBABRJZzp95JWB5Y/VfLVA+b00BClCAAhTIQ4GIf50/c4hPmNm3vpZfA+ThO62kAAUoQIGOFchoOb916G8Dhv/esaTejgIUoAAFKJCWAuv71v/mK/bv+TfLG6sXrWysXjkYVU9tC8tZQzbd122sfi6tXtAaClCAAhSgQGQF+racPwusLI+qyyLL7PIUoAAFKECBxSpQwHL+1CsNAGCxnvTuFKAABSgQWIHc/zp/ltn8LK8BAIGN53IUoAAFKNCtApbzJ/5LgLuuCACAbn3q3ShAAQpQYE4FLOfPFvjbVwkAwJxG9HIKUIACFIingOX8MGG/Pfyb7wFAPN+6MgUoQAEKTKmA5fx4gb8dAgDAlOb0dApQgAIUCKeA5fzuAh8AhPOtK1GAAhSgwBQKWM5fXNhvD3+/ApjCuJ5KAQpQgALTKWA5P63A3w4BfgUwnZ89mwIUoAAFdlDAcn7agQ8AdjCuhylAAQpQoL0ClvPzCvvt4e9XAO297pkUoAAFilbAcn7+gb8dAvwKoOgh7eYpQAEKTFbAcn7/Ah8ATPa6RylAAQoUq4Dl/P6H/fbw9yuAYoe7G6cABUpWwHJ+mYG/HQL8CqDkKuDeKUCBIhSwnC/wt4e/FYAihr6bpAAFSlLAcr6wnxT2kx6zAlBSZXCvFKBA7xSwnC/wJ4V7m8cAQO/KgRuiAAX6rIDlfIHfJtzbPAcA9LlSuDcKUCBrBSznC/s2QT7rcwBA1uVB4ylAgT4pYDlf4M8a5rO8DgD0qXq4FwpQICsFLOcL/FmCO9RrAEBW5UJjKUCBXBWwnC/sQwV3qOsAgFyriXZTgAJJK2A5X+CHCupY1wEASZcQjaMABXJRwHK+wI8V1LGuCwByqS7aSQEKJKOA5XxhHyuUu7wuAEimpGgIBSiQqgKW8wV+l8Hc1XsBgFQrjnZRgAILU8ByvsDvKoQX+T4AYGElxhtTgAIpKGA5X9gvMoQX+d4AIIUKpA0UoEBnCljOF/iLDN2U3hsAdFZ2vBEFKLAIBSznC/yUQjeptgyr+1dG1V4fEzTYf+qxywej6ubBcO2OwbC6azCqbh2MquuXR9Uf0myCZj320mBj9XcGo+qSlVH1xlfsW/+JRWSZ99xFAcv5wj6pgB3pD/3BAz30wF8ORtV1g+Haz+wSSX4cUwHL+YpLD4tL7Z74mgcy8cBw7dJzDp7zN2LmnGv/lQKW8zMZFGa+QpwHeKAcD9y8vm/9RwV1QAUs5wt7syAe4AEeyMQDB9f3rf+1gBFY1qUs5xvomQx0M7tyZnb6Wl+39sDKxurPl5Xac9yt5XyBL/B5gAd4oC8eWBlVj778mpf/yByx2M+XWs43yPsyyN0HL/MAD+zkgeXh2mv6meJT3JXlfANkpwHicd7gAR7orQc2Vj83RVT246mW8w3o3g5ovwNt/TtQHlAHeKC6qx+pvsNdWM43yA1yHuABHuCBiR54ZofozPNhy/kTO9msyMyYB3iAB3jgDA/kmfR/1WrL+QIf2fMAD/AAD8zmgWwAwHL+bB1sYNCNB3iAB3hgkgeSBQDL+Qw7ybAe4wse4AEeCOOBZADAcn6YDjUw6MgDPMADPNDGAwsBAMv5zNnGnJ7DJzzAAzwQzwOdAIDl/HgdaHDQlgd4gAd4YBYPRAEAy/nMOIsZvYZveIAHeKA7D8wNAJbzu+ssA4PWPMADPMADoTwwNQBYzme+UOZzHV7iAR7ggcV5YFcAWN1Y/SfLo+rCwXDt04NRdZ/OWlxn0Z72BXvg8GBUbZb6sTysDkXq+2I1zcxLUfp/IgCsXLHy9wej6lcHo+qBSKY740hC7yPceIAHdvLA8qi6bGKxKuTB5eHa+k7azPN4IfJlf5ud9f+p2f6oemYeU3mtQs4DPBDSAwAAAGSf4nPcQHwAqJdesjKq9oYctK4lBHiAB0J4AAAAgDnyM/uXRgeAwcbqR0MMVNdQ8HmAB0J7AAAAgOxTfI4biAoAK8O1fzcYVd8PPWhdTxDwAA+E8AAAAABz5Gf2L40GAJdccskPDTZW7w4xSF1DsecBHojhAQAAALJP8TluIBoADDZWXxFjwLqmIOABHgjlAQAAAObIz+xfGhMAPhFqkLqOgs8DPBDDAwAAAGSf4nPcQDQAWB5VX48xYF1TEPAAD4TyAAAAAHPkZ/YvjQYAg1H1vVCD1HUUfB7ggRgeAAAAIPsUn+MGYgKAv/4fKdoxirZr8lUoDwAAADBHfmb/0pgA4FheAMADPJC0BwAAAMg+xee4AQCgQCddoEPN9FzHqsEkDwAAADBHfmb/UgAAAAAADxTrAQAAALJP8TluAAAo/sUW/0kzQo+VtVIAAADAHPmZ/UsBAAAAADxQrAcAAADIPsXnuAEAoPgXW/zN9sua7U/qbwAAAObIz+xfCgAAAADggWI9AAAAQPYpPscNAADFv9jiP2lG6LGyVgUAAACYIz+zfykAAAAAgAeK9QAAAADZp/gcNwAAFP9ii7/Zflmz/Un9DQAAwBz5mf1LAQAAAAA8UKwHAAAAyD7F57gBAKD4F1v8J80IPVbWqgAAAABz5Gf2LwUAAAAA8ECxHgAAACD7FJ/jBgCA4l9s8TfbL2u2P6m/AQAAmCM/s38pAAAAAIAHivUAAAAA2af4HDcAABT/Yov/pBmhx8paFQAAAGCO/Mz+pQAAAAAAHijWAwAAAGSf4nPcAABQ/Ist/mb7Zc32J/U3AAAAc+Rn9i8FAAAAAPBAsR4AAAAg+xSf4wYAgOJfbPGfNCP0WFmrAgAAAMyRn9m/FAAAAADAA8V6AAAAgOxTfI4bAACKf7HF32y/rNn+pP4GAABgjvzM/qUAAAAAAB4o1gMAAABkn+Jz3AAAUPyLLf6TZoQeK2tVAAAAgDnyM/uXAgAAAAB4oFgPAAAAkH2Kz3EDAEDxL7b4m+2XNduf1N8AAADMkZ/ZvxQAAAAAwAPFegAAAIDsU3yOGwAAin+xxX/SjNBjZa0KAAAAMEd+Zv9SAAAAAAAPFOsBAAAAsk/xOW4AACj+xRZ/s/2yZvuT+hsAAIA58jP7lwIAAAAAeKBYDwAAAJB9is9xAwBA8S+2+E+aEXqssFWBYXX/yqjaW+rHYFRtxvB8qXrmdt+x+n8phqlcs7DiDM7AGQ/wAA9k5wEAwLTZmRZgAkwe4AEemN8DAAAAAAAe4AEe4IECPQAACux05Dw/OdOQhjzAA7l7AAAAAOTPAzzAAzxQoAcAQIGdnju1ar+ZFw/wAA/M7wEAAACQPw/wAA/wQIEeAAAFdjpynp+caUhDHuCB3D0AAAAA8ucBHuABHijQAwCgwE7PnVq138yLB3iAB+b3AAAAAMifB3iAB3igQA8AgAI7HTnPT840pCEP8EDuHgAAAAD58wAP8AAPFOgBAFBgp+dOrdpv5sUDPMAD83sAAAAA5M8DPMADPFCgBwBAgZ2OnOcnZxrSkAd4IHcPAAAAgPx5gAd4gAcK9AAAKLDTc6dW7Tfz4gEe4IH5PQAAAADy5wEe4AEeKNADAKDATkfO85MzDWnIAzyQuwcAAABA/jyQgwcOD0bVZrEfw+pQpLApV9Oc/BSp/wGA4p9D8dfGwn26PKouWyr4v+Xh2noMAChY0qxuPVr/xzCVa1oa4wEeCOkBAAAAskrswI0FAIXPgEIWU9cSzrl5AAAAgMCZmtXlAAAAsAzOA8V6AAAAgKwSO3BjAYDiX2zxz222qr3hV1gAAAAInKlZXQ4AAAAAwAPFegAAAICsEjtwYwGA4l9s8TejDj+jzk1TAAAAAmdqVpcDAAAAAPBAsR4AAAAgq8QO3FgAoPgXW/xzm61qb/gVCwAAAAJnalaXAwAAAADwQLEeAAAAIKvEDtxYAKD4F1v8zajDz6hz0xQAAIDAmZrV5QAAAAAAPFCsBwAAAMgqsQM3FgAo/sUW/9xmq9obfsUCAACAwJma1eUAAAAAADxQrAcAAADIKrEDNxYAKP7FFn8z6vAz6tw0BQAAIHCmZnU5AAAAAAAPFOsBAAAAskrswI0FAIp/scU/t9mq9oZfsQAAACBwpmZ1OQAAAAAADxTrAQAAALJK7MCNBQCKf7HF34w6/Iw6N00BAAAInKlZXQ4AAAAAwAPFegAAAICsEjtwYwFAj4p/tf+V9QVXvaV+z3Xvq9/xhV+oX/v5NxRb2FOfia5srNVvuebC+j9d/5/rd33xPaf6LfU297F9AAAABM7UrC4HAHoAAJfc8uH6+oduqL937Hv1yZMnT/t46OmH6z+5Z1i/+eoLwcCC+3pltFY3fXXDwzfWzz7/7Gn91PTbY0cO11d+8/P1z2/+B33VUV8BAACQVWIHbiwA6KjQxJg9vX3zP9Z3HD50RpBsh4Dm+2PHj9Wje/fX5x5YFy4L6POmr24/fEervjpx4kR91f3X1K+64jX6KnJfAQAAEDhTs7ocAIhcYGIEf3PND93yK/Uzx55pFShbgeCu795dv/7gmwRLh/3+gZsuro8cOzJ1X33r6YfqN139c/oqYl8BAACQVWIHbiwAiFhcYoX/RTd+sH7+xPNTB8oYBL7xxH1mlx31+/u/dNGp1Zex9tN+bn6F87qDbwQBkfoLAACAwJma1eUAQKTCEiv8m9n7k0efnDn8xwF0/UNfEiqR+/7VV55ff/uZR+fuq6/8nz/TV5H6CgAAgKwSO3BjAUCkwhILAK785sG5A2UMAc2vEWK103Wr+toHN4P11SU3f1hfRRirAAAABM7UrC4HACIUlVjh18z+jx2ffel/HPzjz48deaxev+I8wRLBA++/4aL6xMkTwQDg1kdv008R+gkAAICsEjtwYwFAhKISCwB+89b/GSxQxhBw+b1DwRLYA81Oi+YP+MYah/jc7Ay44Ko366vAfQUAAEDgTM3qcgAgcEGJFf7Ndb/4reuDhkoTTMdPHD91EE3Mdpd27c/c+dng/dT01X+55b8CgMDjFQAAgKwSO3BjAUDgghIz7A595y+iBMvdj99T79k4V7gE8EJziM9zx5+L0k+X/sWn9FGAPto6RgEAAAicqVldDgAELihbi0vorx946oEowdLMLn/39k8Ilzm90Jz01/yuPsSS/6RrfPrOP9RHc/bR9jEJAABAVokduLEAIHBB2V5gQn7/tcdujxYuzaFCfsc837+O9xt//vFo/dMAwe/d8fsAIPB4BQAAIHCmZnU5ABC4oIQM/O3XuuaBcNvKJs0wb3rkZgEzox/O+/zr68effSIqAPzSTb+sf2bsn+1jafw9AAAAWSV24MYCgMAFZVxYYnz+yJ/+etSAaaDA2QCzrQKE3PM/Cc6akx9ffeVrAUDg8QoAAEDgTM3qcgAgcEGJEfzjazYny81ypvykQNnpMWcDTA8Aoff8T+qb6x66XvhHGKsAAABkldiBGwsAIhSVcWDH+Bxri9nW0HE2QHsIiLHnf2tfNF83Bwq9+7r3AoAIYxUAAIDAmZrV5QBAhKISI/jH1/zZK15bHz7ynai/CnA2QHsA6ALINh/8gvCPNE4BAADIKrEDNxYARCos48CO8fnXvvLRqADQzDqdDbA7BFx47dvro8/H2fM/XgV48uhT9fkHLwAAkcYpAAAAgTM1q8sBgEiFJUbwb73mLY98OToEOBtgZwiIved/DAAf++rHhX/EMQoAAEBWiR24sQAgYnHZGtihv37T1W+tjzx/JCoEOBtgZwBognkc0rE+3374jroBjdDecb0X+xUAAIDAmZrV5QBApgDQFPFLD30qegjd+MhNAmibR7rY83/s+LH6bZvvpP027UPDCwAAAFklduDGAoDIBSZ0wdp6vdWNV9b3PvGN6BDgbIAXZ4yN/rH3/DcrCs0fF27ta1+f3gfB9BhW96+Mqr2lfgxG1WYwLbfU0lL1zO2+Y/X/UgxTueaZRbDZHtb8U7GxlqGb6zob4EXdu9jz/9DTD9fN9kJ+f1F3WtCCB/LxAADYQsOxjXvgviujAkADAc4GqOq1/ev1g099K7rWH7jxYuHf4fiJPT5dP5/g0ldh+goAdFjATp0N8OzhqMHkbIDq1LJ8zJWW5trNrxcUoTBFiI505IHFeAAAdAgAjcmdDRDX6Pb8x9VXoaYvD/THAwCgYwBoBo+zAeIMIHv+4+iq4NOVB/rpAQCwAABwNkCcwWTPfxxdFX+68kA/PQAAFgAAzWByNkDYAWXPf1g9FXx68kD/PQAAFgQAzgYIO7js+Q+rp+JPTx7ovwcAwIIAoBlczgYIM8Ds+Q+jo4JPRx4oywMAYIEA0Aw2ZwPMN+Ds+Z9PPwWffjxQrgcAwIIBwNkA8w2+5ihee/7n01AA0I8HyvQAAFgwADQDz9kAsw0+e/5n002xpxsP8EDjAQCQAAA0HeFsgOkGpD3/0+ml4NOLB3hguwcAQCIA4GyA6QanPf/T6bV94PuefjzAAwAgEQBoBqOzAdoNSHv+2+mkwNOJB3jgbB4AAAkBgLMB2g1We/7b6XS2ge9nNOQBHgAACQFAMyCdDXD2QWnP/9n1UdTpwwM80NYDACAxAGg6ztkAkwewPf+TdWk72D2PfjzAA1s9AAASBABnA0wepPb8T9Zl64D2NY14gAfaegAAJAgATec5G+D0QWzP/+l6tB3gnkc3HuCBnTwAABIFgKbDnA3wg4Frz78CNhhVhwejarPYj2F1aKciPufj5Wqak58i9T8ASBgAnA3wg+Cz5x8ALI+qy5YK/m95uLY+Z9DXk15fsKRZ3Xq0/p9kCo+lU3BLPxvAnv90vLjIugAAAEBWiR24sQAg4Zl6zMJY+tkA9vwDgGZ8AQAAEDhTs7ocACgUAJriV+rZAPb8C/8xXAMAAJBVYgduLAAoGACaIlja2QD2/Av/cfg3nwEAAAicqVldDgAUDgClnQ1gzz8AAAAvZlS0AHjxLXyVsALR+n/rIPN12kW3lLMB7PlP24eLqBNWAKwAJJzP0ZsGAApfARgX3b6fDWDPv/Afe33rZwAAAKKnbMJvAAAAwKl9vH0/G8CefwCwNfjHXwMAAJBwPkdvGgAAAC8c5NHXswHs+Rf+48Df/hkAAIDoKZvwGwAAAPACAPT1bAB7/gHA9uAffw8AAEDC+Ry9aQAAALwAAE1R7NvZAPb8C/9x2E/6DAAAQPSUTfgNAAAAOA0AmiLZl7MB7PkX/pNCf+tjAAAAJJzP0ZsGAADAGQDQl7MB7PkHAFvDftLXAAAARE/ZhN8AAACAMwCgKZS5nw1gz7/wnxT42x8DAAAg4XyO3jQAAAAmAkBTKHM9G8Cef+G/Peh3+h4AAIDoKZvwGwAAALAjAOR6NoA9/wBgp8Df/jgAAAAJ53P0pgEAALAjADTFMrezAez5F/7bQ/5s3wMAABA9ZRN+AwAAAM4KALmdDWDPPwA4W+Bv/xkAAAAJ53P0pgEAAHBWAGgKZi5nA9jzL/y3B/xu3wMAABA9ZRN+AwAAAHYFgKaIpn42gD3/wn+3sJ/0cwAAABLO5+hNAwAAoBUApH42gD3/AGBSwO/2GAAAANFTNuE3AAAAoBUANIU01bMB7PkX/rsF/U4/BwAAIOF8jt40AAAAWgNAU0RTOxvAnn/hv1O4t3kcAACA6Cmb8BsAAAAwFQCkdjaAPf8AoE3Q7/QcAAAAEs7n6E0DAABgKgBoCmkqZwPY8y/8dwr2to8DAAAQPWUTfgMAAACmBoBUzgaw5x8AtA36nZ4HAABAwvkcvWkAAABMDQBNMV302QD2/Av/nUJ9mscBAACInrIJvwEAAAAzAUBTZBd1NoA9/8J/mpA/23MBAABIOJ+jNw0AAICZAWBRZwPY8w8Azhbq0/wMAACA6Cmb8BsAAAAwMwA0hbbrswHs+Rf+0wT8bs8FAAAg4XyO3jQAAADmAoCmwHZ1NoA9/8J/t0Cf9ucAAABET9mE3wAAAIC5AaCrswE+cccn65MnT0b9uP3wHXUDGtMGiefnCScAAAAknM/RmwYAAECQsOvibIDnjj8XNfyPHT9Wv23znUH0AAR5AAEAAADRUzbhNwAAACBI4HV1NkDMFYDmjwsFdx7BHaqfAAAASDifozcNAACAYKHXxdkAsQDgoacfrs89sB5Mi1AB5TpxgQQAAIDoKZvwGwAAABA09Lo4GyAGBHzgxouD6iC44wZ3KH0BAABIOJ+jNw0AAICgwdfF2QChAaA5UjhUoLhOHsE/7icAAACip2zCbwAAAEDw8OvibIBQEPDk0afq8w9eEFyDccD4nDYQAAAAkHA+R28aAAAAUcKvi7MBQkBA888JC+m0Qzpm/wAAABA9ZRN+AwAAAKIEYBdnA8wLAPb8lxv8Y6gAAAAg4XyO3jQAAACiAEBTYLs4G2BWCLDnX/g3HgUAACB6yib8BgAAAEQDgJTPBrDnHwCcWgUYVvevjKq9pX4MRtXmeDUk5OdS9cztvmP1/1JIM7lWvsU6xbMB7PnP109qgb7jgfQ9AACsLLywspDa2QD2/KdfQBR5fcQD+XoAAACAFwAgpbMB7PnPt6gIBH3HA3l4AAAAgBcAoBm0KZwNYM9/HsVDkddPPJC3BwAAADgNAJoBveizAez5z7uoCAX9xwN5eAAAAIAzAGCRZwPY859H4VDg9RMP5O8BAAAAzgCAZmAv4mwAe/7zLyhCQR/yQD4eAAAAYCIALOJsAHv+8ykciry+4oH8PQAAAMBEAGgGd5dnA9jzn38xEQj6kAfy8gAAAAA7AkAzmK/85sF61mN8p3mdPf95FQ6FXn/xQP4eAAAA4KwAcNndfxwdAE6cPFG/64vvOWs7FJv8i40+1Ic8kJYHAAAA2DF4L7z27fVzx5+LDgDNSsHdj99T79k4d8e2KBxpFQ79oT94IH8PAAAAMDF0V0Zr9a2P3tZJ+I9/VfC7t39iYlsUmvwLjT7UhzyQngcAAACYGLof++pvdhr+DQQ8c+yZ+oKr3jyxPYpHesVDn+gTHsjbAwAAAJwRuOd9/vX1E0ef6BwAGgi48ZGbzmiPIpN3kdF/+o8H0vQAAAAAZwTu5oNfWEj4j38V8KFbfuWMNikgaRYQ/aJfeCBfDwAAAHBa2L7/hovq5q/yx2G8iM+PHXmsXr/ivNPapcjkW2T0nb7jgTQ9AAAAwAtBu7Z/vX7wqW8tNPzHwHH5vcMX2qV4pFk89It+4YG8PQAAAMALQfuZr382ifBvIOD4iePOBuDNF7wpaPIOGv2XZv8BAEX2VJHtcs//eJa/22dnA6RZNBRz/cID/fAAAAAA9SL2/O8W/uOfOxugH4UmQGAcHoyqzWI/htWhABpOWlEpV9Oc/BSp/wEAAKgXsed/HPC7fXY2AABogm95VF22VPB/y8O19RgAULCkWd16tP6PYSrXzKdoL3LP/27hP/65swHy8VOssQ8AAEBWiR24sQDATH3S8t3cjy16z/845Hf77GyAsiEAAACAwJma1eUAAACYO+y3z85S2PO/W/CPf+5sAACQVcUO3NhoARC4nS4XR4Fo/b89FHxfRqFNac//OOR3++xsgDK8OakGWQGwAhAnWvO4KgCwAhB0BSClPf+7Bf/4584GAAB5lOvwrYwWAOGb6ooRFIjW/5No22P9LrQp7vkfh/xun50N0G9v7lR7rABYAYiQq9lcEgBYAQiyApDynv/dwn/8c2cDlAcBAAAAZJPWERoKAABAEADoYs9/s1Q/DusYn50NAAAi1NikLxktAJK+a40bKxCt/3dacvN4/4psF3v+jx0/Vl9+zygqADRQ4WyA/vnzbDXHCoAVgHEYlvgZAFgBmHsFoIs9/5+587P16sYr63uf+EZ0CHA2QDkQAAAAQInBP75nAAAA5gKALvb8P/T0w/W5B9ZPtfPd1723PnHiRFQIcDYAABgXyL5/jhYAfReuJ/cXrf/PtuzmZ/0osF3t+f/AjRefBikH7rsyKgA0vwpwNkA/PLpbrbECYAWgJ1k+020AACsAp4XrbgVz68+72PN/7YObZ7TvZ694bX342cNRIcDZAABgpoqa2YuiBUBmOpTa3Gj9vzUofN2/YtrFnv8njz5Vn3/wgjMAoPHTr33lo1EBoFkFcDZA/3y7vRZZAbACUGr4N/cNAKwATAzY7YVy6/dd7fn/2Fc/fta23fLIl6NDgLMB+g0BAAAAAIDwY3xpa2D4OrzAi9S0iz3/tx++o25A42z3+aar31ofef5IVAhwNkC/vLvdTwAAAACA8GO8ErdzAAAWd0lEQVQcAPR0ZaGrPf9v23znWcN/XMgvPfSpqADgbIDwxWHcdyl8BgAAAACEH+MAoKcA0NWe/7bh4GyA8IO3rfZ9eB4AAAAAIHwNAQA9BICu9/y3DRhnA4QfwG21z/15AAAAAIDw9QMA9AwAFrXnv23AOBsg/CBuq33OzwMAAAAAhK8dAKBnALCoPf9tw8XZAOEHcVvtc34eAAAAACB87QAAPQKARe/5bxswzgYIP5Dbap/r8wAAAAAA4esGAOgJAKSy579twDgbIPxgbqt9js8DAAAAAISvGQCgJwCQyp7/tuHibIDwg7mt9jk+DwAAAAAQvmYAgB4AQGp7/tsGjLMBwg/ottrn9jwAAAAAQPh6AQB6AACp7flvGy7OBgg/oNtqn9vzAAAAAADh6wUAyBwAUt3z3zZgnA0QflC31T6n5wEAAAAAwtcKAJAxAKS+579twDgbIPzAbqt9Ls8DAAAAAISvEwAgYwBIfc9/23BxNkD4gd1W+1yeBwAAAAAIXycAQKYAkMue/7YB42yA8IO7rfY5PA8AAAAAEL5GAIAMASC3Pf9tA8bZAOEHeFvtU38eAAAAACB8fQAAGQJAbnv+24aLswHCD/C22qf+PAAAAABA+PoAADIDgFz3/LcNGGcDhB/kbbVP+XkAAAAAgPC1AQBkBgC57vlvGy7OBgg/yNtqn/LzAAAAAADhawMAyAgAct/z3zZgnA0QfqC31T7V5wEAAAAAwtcFAJAJAPRlz3/bgHE2QPjB3lb7FJ8HAAAAAAhfEwBAJgDQlz3/bcPF2QDhB3tb7VN8HgAAAAAgfE0AABkAQN/2/LcNGGcDhB/wbbVP7XkAAAAAgPD1AAAkDgB93fPfNmCcDRB+0LfVPqXnAQAAAADC1wIAkDgA9HXPf9twcTZA+EHfVvuUngcAAAAACF8LAEDCAND3Pf9tA8bZAOEHflvtU3keAAAAACB8HQAACQNA3/f8tw0XZwOEH/httU/mecPq/pVRtbfUj8Go2ozRF6Xqmdt9x+p/AJAoAJSy579tUXM2AAho6xXP4xUeaOcBAJAgAJS257/tYHU2QLtB3VZPz6MnD5TtAQCQIACUtue/bRFyNkDZxaqtTzyPT3ignQcAQGIAUOqe/7YD1tkA7QZ2Wz09j548UK4HAEBCAFD6nv+2hcjZAOUWrLYe8Twe4YHdPQAAEgKA0vf8tx2wzgbYfWC31dLzaMkD5XoAACQCAPb8TzcInQ0wnV6KPL14gAe2ewAAJAIA9vxPNzidDTCdXtsHvu/pxwM8AAASAAB7/mcbiM4GmE03hZ9uPMADjQcAwIIBwJ7/+QaiswHm008Q0I8HyvUAAFgwANjzP9/gczbAfPop/vTjgXI9AAAWCAD2/IcZeM4GCKOjIKAjD5TlAQCwIACw5z/sQHM2QFg9BQE9eaD/HgAACwIAe/7DDi5nA4TVU/GnJw/03wMAYAEAYM9/nIHlbIA4ugoCuvJAPz0AABYAAPb8xxlMzgaIo6viT1ce6KcHAEDHAGDPf9yB5GyAuPoKAvryQH88AAA6BAB7/rsZOM4G6EZnQUBnHsjbAwCgQwCw57+bweJsgG50VvzpzAN5ewAAdAQA9vx3O1CcDdCt3oKA3jyQnwcAQAcAYM//YgaGswEWo3ukIDg8GFWbxX4Mq0ORdC1X05z8FKn/AUAHAGDP/2KCyNkAi9E9RlAtj6rLlgr+b3m4th5D14IlzerWo/V/DFO55ouF157/F7VYhC+cDbBY/UP1OQAAAFklduDGAoAOZuqhitXW69jzv9gAcjbAYvXfOhbm+RoAAIDAmZrV5QBAhgBgz38a4eNsgDT6AQDMnjnRAmD2JnllhwpE6/95BqXX7lxYmz3/Dz39cH3y5MloHydOnqgvuvGDtX7YuR/G2hy474po/TDu48vvHeqLSKBuBcAKQId5m9xbAYBIhWUcEKE/f+KOT0YPnGsf3BQ4LX3RxdkAx44fq9941Vv1Scs+mWbMAQAAkFwqd9ggABChqExTgKZ57srGWv3YkceiAsCTR5+qzz94gbCZwhe/+pX/FrVPmpWAy+8d6ZMp+qTtuAIAAKDDvE3urQBAhKLStvhM+7z3fekXowfNx776cUEzgydinw3w7Wce1S8z9MtuYwwAAIDkUrnDBgGACEVlt6Iz689//9D/igoAXzt8e90cLjRr+0p+3Zuu/rn62eefjdo/b776Qn0TeLwCAADQYd4m91YAIHBBiRmCMf8xmub3zG/bfKeAmcMPsc8GaFaAYvqrxGsDAACQXCp32CAAMEfB77pgXv3ANdFmmM0/KNT1/fTt/ZqzAe578r5ofXTxzR/SR4HHKwAAAB3mbXJvBQACF5SYofZHd++LEi7NtsJzD6wLlwBeiHk2QHPtmP4q8doAAAAkl8odNggABCj6XRXO37rtt4MDgD3/u+/1n7Z/Y50N0Bz/PG1bPP/s/QsAAECHeZvcWwGAjACg+UOz8eEwoT7b83/2gJglQGOcDXDX43cL/whjFQAAgORSucMGAYAIRWWW0Gj7mru+e3cwCHjy6JP1+QffIFgieCD02QC/d8el+ilCPwEAANBh3ib3VgAgQlFpG+azPK/5Q7BQs397/sPP/rf2aaizAb777Hfr9SvOAwARxioAAADJpXKHDQIAEYrK1hCI8fUND980NwTc8shX7PmP3PcXXPWWujlZcV5g+8if/rrwj9RXAAAAdJi3yb0VAIhUWGIE//iar7riNXNtN3vgqQdqf1AWd/Y/7qsP3HRx3ZyxMCsEfPauPxL+EccoAAAAyaVyhw0CABGLyzgEYnxuAvzWR2+bOlju/M7X69df9Uah0mG/f/CmS+qnn3t6qr46ceJE/Qdf/4xVmsj9BAAAQId5m9xbAYDIBSZG+I+vWe1/Zf3JQ5fWTz23+zLzkWNHTgVKtf9Vwn8Bfd78a343PXJz3Wy73G01oFmhaVYOxv3sc7zVGgAAAJJL5Q4bBAAWEAahC/prrnxd/fFb/0fd/NHZY0cO18eOP38qZB5/9on6z7795/XvfG1vfd7nXydQEujrd3zhF+rL7v7j+u7H76mPPn/0VD81/dUcxrT54BfqS275cL1n41x91VFfAQAA0GHeJvdWAKCjQhM69M92veafDW4+zvYcP4s3q5xG22YVZ5rne27YfgMAACC5VO6wQQCghwAgJMKGBD37qycAAAAd5m1ybwUAAIAZKA8U6wEAAACSS+UOGwQAFP9ii7+ZfX9n9m37FgAAgA7zNrm3AgAAAADwQLEeAAAAILlU7rBBAEDxL7b4t50lel5/VwoAAADoMG+TeysAAAAAAA8U6wEAAACSS+UOGwQAFP9ii7+ZfX9n9m37FgAAgA7zNrm3AgAAAADwQLEeAAAAILlU7rBBAEDxL7b4t50lel5/VwoAAADoMG+TeysAAAAAAA8U6wEAAACSS+UOGwQAFP9ii7+ZfX9n9m37FgAAgA7zNrm3AgAAAADwQLEeAAAAILlU7rBBAEDxL7b4t50lel5/VwoAAADoMG+TeysAAAAAAA8U6wEAAACSS+UOGwQAFP9ii7+ZfX9n9m37FgAAgA7zNrm3AgAAAADwQLEeAAAAILlU7rBBAEDxL7b4t50lel5/VwoAAADoMG+TeysAAAAAAA8U6wEAAACSS+UOGwQAFP9ii7+ZfX9n9m37FgAAgA7zNrm3AgAAAADwQLEeAAAAILlU7rBBAEDxL7b4t50lel6PVwqG1f0ro2pvqR+DUbUZw9+l6pnbfcfq/6UYpnLNHhdiIAbEeIAHeKAXHgAAjNwLI4NO0MkDPMAD03kAAAAAAMADPMADPFCgBwBAgZ2OkqejZHrRiwd4oI8eAAAAAPnzAA/wAA8U6AEAUGCn95Fk3ZMZGg/wAA9M5wEAAACQPw/wAA/wQIEeAAAFdjpKno6S6UUvHuCBPnoAAAAA5M8DPMADPFCgBwBAgZ3eR5J1T2ZoPMADPDCdBwAAAED+PMADPMADBXoAABTY6Sh5OkqmF714gAf66AEAAACQPw/wAA/wQIEeAAAFdnofSdY9maHxAA/wwHQeAAAAAPnzAA/wAA8U6AEAUGCno+TpKJle9OIBHuijBwAAAED+PMADPMADBXoAABTY6X0kWfdkhsYDPMAD03kAAAAA5M8DPMADPFCgBwBAgZ2OkqejZHrRiwd4oI8eAAAAAPnzQA4eODwYVZvFfgyrQ5ECqFxNc/JTpP4HAIp/DsVfGwv36fKoumyp4P+Wh2vrMQCgYEmzuvVo/R/DVK5puYwHeCCkBwAAAMgqsQM3FgAUPgMKWUxdSzjn5gEAAAACZ2pWlwMAAMAyOA8U6wEAAACySuzAjQUAin+xxT+32ar2hl9hAQAAIHCmZnU5AAAAAAAPFOsBAAAAskrswI0FAIp/scXfjDr8jDo3TQEAAAicqVldDgAAAADAA8V6AAAAgKwSO3BjAYDiX2zxz222qr3hVywAAAAInKlZXQ4AAAAAwAPFegAAAICsEjtwYwGA4l9s8TejDj+jzk1TAAAAAmdqVpcDAAAAAPBAsR4AAAAgq8QO3FgAoPgXW/xzm61qb/gVCwAAAAJnalaXAwAAAADwQLEeAAAAIKvEDtxYAKD4F1v8zajDz6hz0xQAAIDAmZrV5QAAAAAAPFCsBwAAAMgqsQM3FgAo/sUW/9xmq9obfsUCAACAwJma1eUAAAAAADxQrAcAAADIKrEDNxYAKP7FFn8z6vAz6tw0BQAAIHCmZnU5AAAAAAAPFOsBAAAAskrswI0FAIp/scU/t9mq9oZfsQAAACBwpmZ1OQAAAAAADxTrAQAAALJK7MCNBQCKf7HF34w6/Iw6N00BAAAInKlZXQ4AAAAAwAPFegAAAICsEjtwYwGA4l9s8c9ttqq94VcsAAAACJypWV0OAAAAAMADxXoAAACArBI7cGMBgOJfbPE3ow4/o85NUwAAAAJnalaXAwAAAADwQLEeAAAAIKvEDtxYAKD4F1v8c5utam/4FQsAAAACZ2pWlwMAAAAA8ECxHgAAACCrxA7cWACg+Bdb/M2ow8+oc9MUAACAwJma1eUAAAAAADxQrAcAAADIKrEDNxYAKP7FFv/cZqvaG37FAgAAgMCZmtXlAAAAAAA8UKwHAAAAyCqxAzcWACj+xRZ/M+rwM+rcNAUAACBwpmZ1OQAAAAAADxTrAQAAALJK7MCNBQCKf7HFP7fZqvaGX7EAAAAgcKZmdTkAAAAAAA8U6wEAAACySuzAjQUAin+xxd+MOvyMOjdNAQAACJypWV0OAAAAAMADxXoAAACArBI7cGMBgOJfbPHPbbaqveFXLAAAAAicqVldDgAAAADAA8V6AAAAgKwSO3BjAYDiX2zxN6MOP6POTtNhdf/KqNpb6sdgVG3G6LNS9cztvmP1/1IMU7mmgs0DPMADPMADaXsAAFhZsLLAAzzAAzxQoAcAQIGdjsrTpnL9o394gAe68AAAAADInwd4gAd4oEAPAIACO70LsvQeZjA8wAM8kLYHAAAAQP48wAM8wAMFegAAFNjpqDxtKtc/+ocHeKALDwAAAID8eYAHeIAHCvQAACiw07sgS+9hBsMDPMADaXsAAAAA5M8DPMADPFCgBxoAeA6lpU1p+kf/8AAP8AAPBPbAsw0APBD4okiyQJLkIcWJB3iAB7LywD1Lg+HaUKdl1WkAC2DxAA/wAA/M5YGVUXX50vKouhAAAAAe4AEe4AEeKMgDG6tvWFrft/6jg1H1hI4vqOOR81zkbKwYKzzAA5l74MmX7Vv/saXmv8Fw7RczvxkFXajzAA/wAA/wQAsPrGysvvtU+Df/u+SSS35oMKquAwGolgd4gAd4gAd67YEb1vet//UXAKD54px96z8+GK7doeN73fHouAUdGwPGAA/wQC89MFy7c2249vdOC//xN80PBsO1/b28cYVf+PMAD/TEA8s9uQ9Z0yloHTjn4Dl/e5z3O34ebKy+ejCqvqZzOu0cxVlR4wEe4AEeCOuB4dqdK6Oq2jHwd/rBnv17frr5Y4HBxurnBqPq1sGoOgoKQAEP8MACPHB4MKo2fZypwcpw7X+vjKrbBhurD6yMqkdXRmvfGYyqRwbDtW8MhmtfptmZmvVckwODUfXbg+Ha+5aHaz+1U77P9Pjylct/dzBc+5nm/ICV4dpHBqPqisGoun8wqv5yAUUhLCkhT3ryQJIeWB5Vl81UsLyIAhSIr0DzV4UrB1Z+cnm4tr68sfr+lVG1d3lj9abBqDoCDMwYeYAH5vEAAIhfw70DBaIoYNVA8Z+n+Hst/wCAKKXZRSmwOAWsGijswp0H2ngAACyuTntnCnSugFUDwdAmGDynDJ8AgM5LsDekQHoKWDUoo+ALdv281QMAIL1arEUUSEoBqwZCY2to+Lo/fgAASZVajaFAPgpYNehPEAj1MvsSAORTb7WUAtkoYNWgzEABEnn1OwDIpqRqKAXyV8CqQV4BIdD73V8AIP+a6g4o0AsFrBr0O2zARHr9CwB6UTrdBAX6q4BVg/SCQ5j3o08AQH/rpjujQO8VsGrQjyACFIvpRwDQ+xLpBilQngJWDRYTKII8L90BQHm10R1ToGgFrBrkFVKgIl5/AYCiS6GbpwAFxgpYNYgXNEI8TW0BwHj0+0wBClBgBwWsGqQZYMBivn4BADsMeA9TgAIU2E0BqwbzBZAAX6x+AGC3Ee7nFKAABWZQwKrBYsMNXOyuPwCYYWB7CQUoQIFZFbBqsHswCe9uNAIAs45ir6MABSgQWAGrBt0EH8D4gc4AIPAAdjkKUIACoRWwagAMYkALAAg9Ul2PAhSgQIcKWDUAB7PCAQDocKB6KwpQgAJdKWDVABjsBgYAoKvR6H0oQAEKJKKAVQNw0MABAEhkQGoGBShAgUUrYNWgLDAAAIsecd6fAhSgQAYKWDXoHxwAgAwGniZSgAIUSFUBqwb5ggEASHVUaRcFKECBzBWwapA2HACAzAeY5lOAAhTITQGrBmmAAQDIbeRoLwUoQIEeK2DVoDs4AAA9HkhujQIUoEBfFHj5NS//kT379/z08nDtNf9/C9svDzZWPzcYVbcNRtXR3fa7+/lkqAAAfRkd7oMCFKBAoQpYNZgc8LuBz8qo2luoZdw2BShAAQr0WQGrBruCwS/1uf/dGwUoQAEKUOAMBawaVPWey8/912cI4wEKUIACFKBAiQoUtGrwnZfuvfCHS+xj90wBClCAAhSYSoE+rRosb6y+f6qb92QKUIACFKAABU5XILdVg5VR9c09+/f8rdPvwncUoAAFKEABCgRTYHBg8A+XN1ZfNhiuvWOwsfpby6Pq2sGoemgwqr6/21/pR/n5xurzg8vP/WfBbtCFKEABClCAAhRor8CCTkN8dnlj9d+3b6VnUoACFKAABSjQmQKRVg1uWR6u/VRnN+GNKEABClCAAhQIo8AMf2vwfwej6prBxuqrl+qll4RphatQgAIUoAAFKJCGAvXSS5pVg5Xh2r9dGa6tDjZWX/WKjdV/UY2qv5NGA7WCAhSgAAUoQAEKUIACFKAABShAAQpQgAIUoAAFKEABClCAAhSgAAUoQAEKUIACFKAABShAAQpQgAIUoAAFKEABClCAAhSgAAUoQAEKUIACFKAABShAAQpQgAIUoAAFKEABClCAAhSgAAUoQAEKUIACMRT4f5G8EXG2CGxzAAAAAElFTkSuQmCC;" vertex="1" parent="1">
          <mxGeometry x="375" y="250" width="30" height="30" as="geometry" />
        </mxCell>
        <mxCell id="p96NarCAE7JXpdNmkWpx-13" value="&lt;font style=&quot;font-size: 11px;&quot;&gt;CSV Payments File&lt;/font&gt;" style="text;html=1;strokeColor=none;fillColor=none;align=center;verticalAlign=middle;whiteSpace=wrap;rounded=0;" vertex="1" parent="1">
          <mxGeometry x="345" y="270" width="100" height="30" as="geometry" />
        </mxCell>
        <mxCell id="p96NarCAE7JXpdNmkWpx-14" value="&lt;font style=&quot;font-size: 10px;&quot;&gt;ISO Bank Payment Files&lt;/font&gt;" style="text;html=1;strokeColor=none;fillColor=none;align=center;verticalAlign=middle;whiteSpace=wrap;rounded=0;" vertex="1" parent="1">
          <mxGeometry x="510" y="220" width="85" height="30" as="geometry" />
        </mxCell>
        <mxCell id="p96NarCAE7JXpdNmkWpx-15" value="&lt;font style=&quot;font-size: 10px;&quot;&gt;ISO Bank Payment Files&lt;/font&gt;" style="text;html=1;strokeColor=none;fillColor=none;align=center;verticalAlign=middle;whiteSpace=wrap;rounded=0;" vertex="1" parent="1">
          <mxGeometry x="595" y="280" width="85" height="30" as="geometry" />
        </mxCell>
        <mxCell id="p96NarCAE7JXpdNmkWpx-16" value="&lt;font style=&quot;font-size: 10px;&quot;&gt;ISO Bank Payment Files&lt;/font&gt;" style="text;html=1;strokeColor=none;fillColor=none;align=center;verticalAlign=middle;whiteSpace=wrap;rounded=0;" vertex="1" parent="1">
          <mxGeometry x="595" y="340" width="85" height="30" as="geometry" />
        </mxCell>
        <mxCell id="p96NarCAE7JXpdNmkWpx-20" value="&lt;font style=&quot;font-size: 11px;&quot;&gt;Core Connector&amp;nbsp; Payments Data&lt;/font&gt;" style="text;html=1;strokeColor=none;fillColor=#FFFFCC;align=center;verticalAlign=middle;whiteSpace=wrap;rounded=0;" vertex="1" parent="1">
          <mxGeometry x="150" y="285" width="90" height="30" as="geometry" />
        </mxCell>
        <mxCell id="p96NarCAE7JXpdNmkWpx-24" value="" style="shape=image;verticalLabelPosition=bottom;labelBackgroundColor=default;verticalAlign=top;aspect=fixed;imageAspect=0;image=data:image/png,iVBORw0KGgoAAAANSUhEUgAAAPsAAAFZCAYAAABe0Vn3AAAgAElEQVR4Ae2dh5ccxZ3H/Z9oJZAMGHwG5+xz9mEbcLbPgAPnnDA8p7P9fE5n+50TZx8Om5QRKKGMUEAghJAAISGhtKtVQKvd2Qk7aWfTzO/er1c96gndXdVpqru+896+me2e6aqu3/dTv6pfV3hZpVIh/KEMoIHka+BlMHLyjQwbw8asAcCOlg1adppoQBj2iYkyFYs5ymYvUSp1nlKpczQ6ehZ/KAOlNMC6zGSGKZ/PUrlcQkVmqciEYC+VijQ2dgGAA2ylwHZyNiMjQ3Tu7DFi7aIbM9eNcYW9VMobntypYHEOLRwVNTA48DydGThMhUIewLv12ScmJiidvhib2lxFwSFPnasIGfaTxw/Q6ZPPAng32PP5DEBH0z22GjBhZ+DZw+vepLdtxnNAjgNx8Eyd80woe39lb4WdgR849RwVCuPaNultYS8WxwE6vHqsNdAMuwm8rh7eFvZ8Ph1rQ8Mr+vOKSSi/drCbTXodg3a2sGezI4Adnj3WGrCDnYHXMWhnC3smcynWhk6CZ8I9+GudOMFuenidmvS2sOORmz+hAdTOl58b7GYfXpegHWBHUz2xLTgR2E3gdfDwgB2waw+72aRPetAOsAN2wH78gBYj7QA7YAfsl2E3PXxSm/SAHbADdgvsZh8+iUE7wA7YAXsT7CbwSfPwgB2wA/Y2sJtN+iQF7QA7YAfsNrAz8DzSrlhMxnx4wA7YAbsD7Az80OARKhULsZ8tB9gBO2B3gZ2BHzx9iAr5eE+PBeyAHbALwG4CH2cPD9gBO2AXhN1s0se1Dw/YATtgl4CdgY9r0A6wA3bALgm76eHj1qQH7IAdsHuA3ezDxyloB9gBO2D3CLsJfFw8PGAH7IDdB+xmkz4OQTvADtgBu0/YGfg4BO0AO2AH7AHAbnp4lZv0gB2wA/aAYDf78KoG7QA7YAfsAcJuAq+ihwfsgB2wBwy72aRXLWgH2AE7YA8BdgZetaAdYAfsgD0k2E0Pr0qTHrADdsAeIuxmH76owO6xgB2wA/aQYTeBL5U6uwAGYAfsgD0C2M0mfbHQuSWuADtgB+wRwc7AG0G7DgEP2AE7YI8QdtPDd6JJD9gBO2CPGHazDx910A6wA3bA3gHYTeCj9PCAHbAD9g7BbjbpowraAXbADtg7CDsDH1XQDrADdsDeYdhNDx92kx6wA3bArgDsZh8+zKAdYAfsgF0R2E3gw/LwgB2wA3aFYDeb9GEE7QA7YAfsisHOwIcRtAPsgB2wKwi76eGDbNIDdsAO2BWF3ezDBxW0A+yAHbArDLsJfBAeHrADdsCuOOxmk97vmnaAHbAD9hjAzsD7XdMOsAN2wB4T2Bn4M4NHqFwqUqVSkf4D7IAdsMcIdrMPX/Cwph1gB+yAPWawm8DLenjADtgBewxhN5v0MkE7wA7YAXtMYWfgZYJ2gB2wA/YYw256eJEmPWAH7IA95rCbfXi3oB1gB+yAPQGwm8A7eXjADtgBe0JgN5v0dkE7wA7YAXuCYGfg7YJ2gB2wA/aEwW56+OYmPWAH7IA9gbCbfXhr0A6wA3bAnlDYTeBNDw/YATtgTzDsZpO+VMwTYAfsiYX93Nljxiwxnimm+x+XBWAH7ImFfRS2bbAtYIcgGgQBQM4mtjwAO2BPrLhRcTVWXIAdsAN2TTQA2DUxdDhebggVRYz0A9hjZKxwgG1s6rmlkRo+Qeln7qfcls9RbuOnKbv7ezR2YjOgj4GOAHsMjOQGYFTnx45voPyK11Ohe17LX3bHdyj10guAXmE9AXaFjRMVxCLpjJ3aToW+RS2QW8EfX3cLjV4aAPCKagqwK2oYEQAj+86l0zT+8EcdQTeg71lA6UP9gF1RTQF2RQ0TGcgC95868yQVeq5yh717HuW2fB6wC5RpJ+wL2BU1TCfEYJdmdse3hEA3vPuSGwC7opoC7Ioaxg68yI9fOEKF3quFYc+vfBNgV1RTgF1Rw0QOtU05pA/1CoPOnj236TOA3aYsO21TwK6oYTotDDP93CNfkYC9izIH7gPsimoKsCtqGBO2jr6PnKH8sleLw953DaUGdgN2RTUF2BU1TEchv1wm6UN94qB3z6P8qrfjObvCegLsChuno8CPDNL46vdKwZ45+Fd4dYX1BNgVNk4nYU8NPkGF/mvFYedHbiODgF1hPQF2hY3TSdjTz/6NCt1dwrDntn4BoCuuJcCuuIE6BXxu/W3CoPMjt/QzfwPsimsJsCtuoE7AbjThexaIw94zn1LnnwPsimsJsCtuoE7Ann3sR+Kgd8+jLJrwsajoAHsUsF86Telj64ghyuz7b7WfRQ+fkovCs1f38Gw9de4ZYxEMngfPj/hSLx2LBTCdqHyDShOwhwn7yCBlnrmf8ive2OIpee63iiu8pM7up0LfNS35NSa5tFm0Iv/AW2n04nFhUFND+ym3/etU6F3YmEbvQqMyTF04InytoCDQ5TqAPSzYLw0YSzbZQWIeVw347OM/aYSwDeBm3vk9u+1L4nCODND46vc5Xp/PY8UbuaXCRCsrwB4S7Nmd33UUtQmMsbpLSHkQFUH9exePU37xK4TybeZ/7MX1grAPETfZzd85vRvAnzsoeN1wwKiXiSq2CSAfgD2AQmwQxvAJyu66V0jUpuC99Hkb0gzoHtJHVkrlO7/yLcJAch89v/h64euPr7+VUheeF75+GOWRtGsC9oBAMYUxB7r4YBQGPrPvN0qIOrvzbmEYZfM9duoRKvQ19dNduggcDwDwwbVcAHtQsHMfXbDpbnp0852j9GZl0cn3/Mo3i8Pet4h4EUrR/HJsQmYRDLNsDA+PJr1wOTvZA7AHAbtgMM4UcPM7P5ZzMlIU58aOrRMHnWe4LXsNjQ6fFM53amgf5fuvk0rDLCcE7YLx7oA9ANi9enQWMz+WG710WhiacMAfoty6W6VAzOz9pVyeeYXatR+SSsOEnd8RtPMPPGD3A7uHYJxVwPyZn8OHA7C4OPjZt1QUvv8aSl2UHwTDQ2rzS2/0DjyCdr60Ath9wO4lGGeFnbdOUmFaaPrwMir0iAcVedsnrxWU7Jp21vLizwjaiVfizTYC7F5g9xGMM8XLTX9Vdk/Jbb5dyttmnv6jZ9hZgOlDPXItiaaoPYJ23oAH7LKw+wzG8RxxbhE017qd+j91/hAVeuZLwN5FvGmE3/wa8+Wbh8w2QW1WjO3eEbSTBx6wS8LuJxjHojVAHz7hGxa/sJm/zzz5KwnQ51Hu4Y/S6GgwWzUbTXq/wOOxnLCWALso7AEE44ymu2h6UXzPiJDfLA57z3ziR3RmRRHEe/rZv/tv0mOknZBNALsgVIEE4xTb4ZRHpxUkxsLnV7whlKmo3Idv11QXPYagnViTHrC7wZ6wYJzVG2f2/0EKstzmO2h05IyQF7GmI/KZm/RSj/+a+vcI2rkDD9idYE9YMK4BupFByi95lRTs/Iiu4RpOZefhHDfpW+a5N0Ht5O0RtHMGHrA7iDJpwTgrqDw11Qmc5nPG8NgIRvoZG1MgaBdKpQrY28GexGBc031KrzMX4WSd9LP/8N+kR9CupcIA7E0QsPdLYjDO6tX58/iD7xL37L1X09jxjS3iab5mkP9jpJ1zk9xLWQN2K+wJDsZZxZE6vVNqIE1+2U00+tLRSGHn/CJoFyzwgN2EPcnBOPMejfchym25Q9yrGwOB7okcdLNy4iY9gnbBQA/YL4OQ5GCcCQ6/p849S/klN4jD3nu18RvrNaL+nD7U7x94jLQjwK5BMM4K59gLq6ggsduLKgtiImjn37trD7sOwTgr7NntXxP36jzf/slfd6wJb803f5bdL77l8aHma9rpC7smwTgrMLwee0Fyaaix0zuUgd0EHiPtvHl5PWHXJhjXKIrMgfukvHp+1b8qBbpZcSFo12hXs1zc3rWEXZdgXIPxRwaN6anNTVun/9OHlyoJO99X+nkE7Rrs2/DEpX1loBfsmgXjrGJIXThM+aXiY+H52brq2zAhaNceaqvdrZ+1gl23YJzV0OnnuqWa8OO8SEVIM9ys+fL7GUE7ceD1gF3DYFwDRDzDbdXbpWBPK7DqbcM9ODRTGXgE7dyhTz7smgbjrKAYWy9JTBUt9F9Do8OnlO2vW+/N/IygHWD3vCWTGbjipv+oQmvGmeKWec/s/bmUV88++q1YgW6WBYJ2zsAn17NrHIwzxW++j6/9oDjsPQto7NiaWMLO95t+9p/+m/QJnR6bWNjZO/GyzaaHln03NnBQbM04E16Z99S5g3Iz3JbcQLy8tEwaqn3Xd9Bu5ZuJd69R7b785id5sF8aoNwjX/YMOVcKxiqwCQCdxZF99JtSZZHb+sVEiNx30O7Bd1PqwpFElIVZSSQO9rGTW6W2Mmr0+Gpt4GAayes7PyfPL3mlOOy8VPTg44kRODfp/UyPzW2+M7A18r3aMMjfJQ72/GKJ6ZtNEeokBOOs4hg7voEKvVcJwz6++r2JAd0sh/Tzi70DzxtYxrxLY5YDvycK9tTQU8LCbvTol5vuDs9yrYUWl88cd2i+T6f/s3t+kjjY2VY8oCi/+HqpsjDLKTXwWGLKJFGwjx1Z4cmgvKRy6uKLiTGqURnxQBrJVk7U68xFWWnOjZ6cJ62PzFO/S4wuEgU7r8Ji1siy70b/7FK8BpI4wSK7YCPv9qLKrrJO9yV97tIAZZ78jcemPG9iuRewSxd6RE3kwtIbPQM/vu7DlLp4PP7GHTlDvIe6TIWXPnBf/O+7WWMjZyjz9J+lHj02lFn/dcRbZKmqddl8Jcqz880bQ0P7FkkJ/YqBuyi36d9pNOYePvXSUcovf61wGfCadIl7rsyg7/0FFXqvFi6HKzqYa+5nd90Ti8lAotAnDnbeTji750fea/PueQbwcfbw6aOrpQRurDOXkHEFhvC56c4e3TPoXTS+9kOJeuzG5ZJA2M8atXFm/x99AN9FcwDEsw8/vlZiG2ZeZ25fcoJQLGqjj94zX6rCs3p1Hl4c58reztMnE3buu/kKzMw14+IYtEsNPi4n8r5FyXmWHITNt3yeRiPY084OyDCPJxf2y8Ea37X8ultiVctnnvofKdhzLO7mwFYc//cbjOvpovH1H0ks6GzjxMNueHif/bfcps/GJmg3vuHj4rD3zKewt2GOpCIJIBjHe8+nLp5IRsVnU1knH3a+8SDEsOmzynt4nrhRkHgSwau7pM4eiLfA/QbjerqIQU9q091a2eoBuwm8n2eu3dzMu0VpUWT2/ETcq/NTh4c/FvuIs+9u2vqPJN6jm8DrAzsDH0gA53NqAn/xRaln6xx9jvXw2EBsmdxgnAm49V0v2C/3Zfx7A/WCdsbU3t6Fwp49/8Bb49t8RzDOk+20hD2JQTvpdeZ2dm4bZqu3kf4cRPxFg2Bcu3LVE3azD+9zOCVH6ZUYfDEyQPkVbxT26tyETx990JN3aCeiyI4hGOfLZvrCbgKfgKBd+uhDUqDn+69VM+5wuZtlV3n4737pE4xrV4Z6w87iCiTQ08Gg3cgQ5bbeJQV75omf+/IQ7YQU6rFAbKRXMK6dPQD7ZW/i32vc2pkmPUfhV75JHPa+lxPP+28nBiWPIRgXmK0Au9l09Nsf7ObpsdGPtBs7sYUKPQuEYR9f/b7YjAYMZDCUpsG4dhU3YDdh5/cgIr0RB+14/r11xpbb5+yeHwfmKdoJKrBjfitfjUbGiZY5YLfCbgLvO2h3ayQBMB7qWpCcypka2h8L2P13q/QOxrWrAAB7M+z8fyABofCDdumDf5Hy6uPG8Fjn/cDaiSTSY4GUPYJx7WwG2NvBfvmYf+/CQbvwZlLxBA63ZvuV812Ufq5Hba+OYFyo9gHsDrAHM9Lu9nCa9MOnqLD4FeKw91+r9kqpQcRLEIxzrCwAuxPsfC4IEW66PXAPn9n/e3HQu+eREYUfOeMohnZNv0iOIRgXiV0AuxvsJvC+g3a3BefhL52m/IrXS8GePrw0EkF5qRz8d5cQjBMpd8AuAjt/R6HA0djpnVToe7kw7LysNLdQRAQR6XcUKtNI71tUcwF/D7BLFqh/L3Sb7ya9sXJu06aUVwJxrVscZbd/TT3QEYyL3CaAXRJ2FYJ24w++U9ircyWQPtQfubAcPWUQcRAE46RtCthlYefvByFWj0E7Y5EKCa/OzX3ep90RPi9l4PU3CMZ1zBaA3ato/TZDjTXtPkKjIwNSxs9u/7qUV8/uvFvq+mFXCpl9v5Ue9WftovByz2GOXQj7/jt5fcDuFXb+XQABJha/sACGT9D4qneIw967kHjTCOHr+ykLgd+mBnZ73iedgTfWuE/oBg5R2AiwC4jUzRC+gnaLrxeehcbbB0vNcHvwnTQ6HN4IPrdyaTg/fJLGV8qtplP36Bps4NBQVgFost31AHsQBeuzHzp2ZKWQ980+6qUJPyR07XbiCPKYUVH1XyveKrHEJXTYwCHIsra7FmAPAna+ho+gXXb3992BvHCYCj1XScDSRalT292vG9T9u1xn7Pgm+V1VMU01UPsBdheR2tWSbY97DNpl9v/B1ag8iaXerLV4Pbtj46vfr9QGEGOndkjtVsP3hWBcsDMUAXuQsPO1ZIN2PfMpNbTPFfbcI1+WgL3L2J+8bYUU9P0KXi91/hDll9wgfA8IxgULOmsBsAuKVRYc0aBdbvPtrqBzFyG/9EZhUPjZ+tjAbvfrhnTvdmWV2ftLKvR0Od8HgnGh2Q2whyV4I2h3n2PTNb/4ekoN7nE1rmwT3tjtRcVHVCNnKLfpM46ws0fHc/TgvTo8e1igW647dmw1jT/0Hgv0XcazZvboqfOHXUEfHRmk/EPvdgSkud+eOXCf+3UtebTzxKEcHz5Jmd0/pPyy11wZXNN7lTGLTyR2EUqeOlUWEacLzx5FgQ+fJO6zjr34MI2d3kGpC4eNvr2IcHlQTKH/GnHY+bm95Kg8kXwE+50hYwgvxyrSL6yk1NmnKfXSUaUCisHebzieWjaPgD0K2H2kkX7mfip0u/RzLdF5I7DlIz1ZAeH7aoAsYgfArjgY4+tuEffqPMPtmfvVbcIrXtYiwMT5O4BdYQFy8E5meCxHumO124vCZR9nqO3yDtgVFlzmyV9JefXcljvh1RW2px2EUR0H7AqLI7ftP8Rh58E5p3cCdoXtGRXUdukAdmXFMUS5jZ8Whj3/wFto9OKLgF1Ze3Y+kAfYFRZH9omfCcOe3XYXQFfYlnbeNsrjgF1hgaRO77oy8MTyeK15EA3Phhsb2AXYFbZllFDbpQXYFReIEaRz2ryxZz5lH/shQFfcjnYARnkcsKsukuFTlN11j+3AGp4NN6riOHjVy1XD/AH2mBh97PhGyu78LuU2fJJyD3+Mco9+g8aOroZHj4n9ovTgdmkBdogFFYYmGgDsmhjarrbH8c4/EovKBoAdsMOza6IBwK6JoaPyHkhH3ZYCYAfs8OyaaACwa2JoeFx1PW5UtgHsgB2eXRMNAHZNDB2V90A66rYgADtgh2fXRAOAXRNDw+Oq63Gjsg1gB+zw7JpoALBrYuiovAfSUbcFAdgBOzy7JhoA7JoYGh5XXY8blW0AO2CHZ9dEA4BdE0NH5T2QjrotCMAO2OHZNdEAYNfE0PC46nrcqGwD2AE7PLsmGgDsmhg6Ku+BdNRtQQB2wA7ProkGALsmhobHVdfjRmUbwA7Y4dk10QBg18TQUXkPpKNuCwKwA3Z4dk00ANg1MTQ8rroeNyrbAHbADs+uiQYAuyaGjsp7IB11WxCAHbDDs2uiAcCuiaHhcdX1uFHZBrADdnh2TTQA2DUxdFTeA+mo24IA7IAdnl0TDQB2TQwNj6uux43KNoAdsMOza6IBwK6JoaPyHkhH3RYEYAfs8OyaaACwa2JoeFx1PW5UtgHsgB2eXRMN2MKeOfMEjZ3YjD+UATSQEA3Ywp5fczMVuufhD2UADSREA4A9IYZExQzH5KYBwA7Y4bk10QBg18TQbrU+zie/ZQDYATs8uyYaAOyaGBqeO/me283GgB2ww7NrogHAromh3Wp9nE++5wfsgB2eXRMNAHZNDA3PnXzP7WZjwA7Y4dk10QBg18TQbrU+ziff8wN2wA7ProkGALsmhobnTr7ndrMxYAfs8OyaaACwa2Jot1of55Pv+QE7YIdn10QDgF0TQ8NzJ99zu9kYsAN2eHZNNADYNTG0W62P88n3/IAdsMOza6IBwK6JoeG5k++53WycLNj7FtH0qdU0c26769/0iZVU6F0YuFerPH6va9qcv+nTa6m4+BVy6fdeTVMv/MP1+tOn11Ch/1q5a4dQ6ZU3fcI1r1wWE9vu9JbXvmuErl9a+wFv1w+hTNyADPN8smDvnkeV3d8moddshcrrPxioCIr911FtqiCU/MzZbVTomS+Xft8imh077H796jSVN35M7tohCHt6YJ17XomosvdHnvJaXHy90PXLW//d0/XDBK8T104c7MX+a6maPSkkgqkX/hmgCLpo6rk/CaVLMxUqrXmPfNqisBMZLYdOCMpMs7j8JuGKD7BH08VIHOwstsl9PxWCrjY7ScUlN8hD18YLFhdfR9XxAaF0uSluQiH1LgE7UY1Kq97qLZ029yeVz+4umj6+XKgs+EuAHbB7F2rfIqqmXxAS29Sh//WejgWKiV1fJ6pVXdOsTZeo9NA7vaUpBTsZwBW6u7ylZbk3OdDnUXHlG6g2mXMtC/MLgB2w+xLpxKN3EVVnTD3ZvnOTn5v+soK2fp8DbbWJlG0a1hPTJ5Z7T0sS9mrhPBWXXO89PY/AVx67W6jiM8sFsAN2fyLtv4ZY7K6vWpXKmz7uK63Knu+6JsNfqJVHqdDn4wmAJOzclK/s/qave7NWaqKfq5njQuVhfgmwA3bfIp3Y/Ekx754+SoXeqzynNzv8lKlbx/fJZ//gOQ0DNGnYiWqli5E+hpvYfpdjGbQ7CdgBuz8wLjdBZ87taKevlmPlLZ/2lF55w20t12p7gIOBy1/jKY26R/UAO+dlYudX/aUr2pzvWUCzLz3R9vadDgJ2wB6IQCe23eGks/q56RMr5NPjQGDmxfo1nD5UHv+e/PWbIfMI+8zQFv9pN+elzf/FFa8TftxmLSvADtiDEWhPF81e3GvVVtvPtUpGekQb9/Vpdqrt9awHq7nTxI/m6h66DShC5zzCzs/1iytf7z99l3xPHe2x3rbwZ8AO2AMTZ2nVm4kfebm9pg7fL5Xm9OAGt0sa5yef+i+p69qC7xV2Ipo5szmYPNgAz4/bRJ5+tCswwA7YgxNn7wKaObOpnc4ajhneffmrhdItrb9ZSNwcmS70LRK6pi3kJmA+YOdhvKVVbwkmH2Z+LO+T+3/RUJYy/wB2wB6oMEur3+kOZ61KEzu+7J5uz3zifrDri6/36F3u17NA4wi8D9g5r5UnfhhcXhry3EWzKYEx+zYFBtgBe+DC5LHwbq/Z0Wdc0y0ufzXVKlm3S1E1f1Y6DhAm7NXCWSr0eH/EaJc3nmgiMnrQrsAAO2B3hc5OfHbH2buL9N3dHsNNHe220+2V49UZmth6e7D34NOzc+Z4dJtd+Xg63reQqumjV+7bwyfADtiDFaXR7BSboDFzfoft9NPSg28jqs26Snrmwu7g8x8A7LOXnqZC79WB5Y2nCdNsxbU8nL4A2AF7YIK0eiyeA10tDTtpj+YCde0HwEw+92fH35onJx75fPD5DwD2uYk47wgsbyJdI7NM7N4BO2APTJBW2Pnz5LN/tNNd/fjkc39qTb/3KqoWLtS/Y/dhdsS939+cJ6H/BWGvTReJn63bvXhRiSBmw/H0YJ4mbPeqVdJ2pxqOA3bA3gpbQwTYewEZI71mJhoE1/xPbabcMrx18uBvmr/W8j+DVlr9rnDyLgg7TwDiQKPtqzYbSB55erDTa/r4MqfT9XOA3buWhZzEZW4SuXiFSAFU9v6nawS58uRP6tAWl91kNO/rCrX5YCw35WNSjWPeRWEfHyTOu9OLWzeOablUrG4rAnF3YWL7F5yyUD8H2AG7LzG6CZnnoFdzzivLzI4cqOdhYtc3iGq1ukDbf6hRafW7679xy4P0eQnYC30vp9pUvn02iag6Pugrn8ZQYYfFOtjrlx++1TZ96wnADth9iVEEpMn9P7dqrvVzbZbKG241otfVrPsc7elji8PNswzs3fNo6tB9rfdkOTKx+1ve8suxC4eVgLiS4bH4gD0aiEW0zt/RthlvFFDPfKqOn7HIv/XjbPooTT71s9YTTUeMKPeaEL06N6slYS/zkF6Hx2K10kvELQBRsZjfK2/+VNPdN/47O7zPWB8AsAN2aXGZIgvjfWLHV4WemzfKufW/6ZMP2D6bDyzfkrDzqjiOK+3yktMeVunh6cBOL165h+8ZsAN2pWDnNdrcvLuTsPkcrz8XyBRWl6CYrGdn4HjhCl6eyu5lbCjhlq7lvLHeXiVjdzmqlkfqm28AdsCuFOyGB3Jpltoq+/IJ7hsH5r0tYLVcU9az87W4q5J36KpUZ6WWnJ46/FfH4pg8+Nt6WQB2wF4XQ4uYnYQe8rmZC485itj25EyJig+8KZp78gI7B+qe/z/b7POJqReXUKHHfcnpuQlA9l69NjNBpbXvr5cFYAfsdTGoBPvEI2LPhBupqVFl30+jux+PsJcf/rBjU75aOCe05PTEo19yHJtQzZ6gQs+CenkAdsBeF4NKsPPkEJ4kIvPivn6k67J7hJ0B5CG8ti+ed7/L/TEcjztwepW33dFgW8AO2BsEoQrwxvZNIuvMW9TO68D7XjFWpnviFXaOjPOy2g6z9WqlYSr0X2Nrm/KmT1ruvPVjNXuq5beAHbC3iEIF4CtPfL9VwQJHpo8vje5+fMBuVGYuIwYndnyl/b3wyjzntjuWRrtttAA7YG8vKBkPF/R3e+YTD57x9KpVqbTu36K5Jx+w8yy3qaO9jrdotyjlXGDOeQZbuzIA7IA9GjAkKgRjUowjBs4np0+sjOaefD8EkwIAAAfRSURBVME+j1wX3qhOU3HZjS33MvnM7x0LYHbkYMtvuLUG2AF7W2F0qilfXPFaqk2MOorZ7aQxVDbElVvrZeMTdr4Oe2+n18zghgb7GF7daRluc/5Am8oVsAP2BjHVhdxGLFGcqzz5Y/fZbLxAQ3XaiRGaubg30OWe2t57ALBPbLvdcZXd5iWn3Vo91dwpKi5uvwsuYAfsysBe7L+OapPjjhAbO6E+fi9NPv1r5+/NTlH54VvCvbcAYC8u/ReXlXFrVNn7g/p9zF7a73jfUy9017/bXEEBdsBuK45msYT6f08XTR35m6OQ+SQvGc1N/dJD7ivTzpx9JNx7CwB2LtOp552HvBpz3XsXUnn9h4iqDotrVqeMOICdnQA7YA8XCMHuQHHpq4ifLbu9rmwJ1UUzl9y3Zi5v/Wx49xcQ7MW+Ra5Lalf23E2zo885Fs/0mU2O9wrYAbujQOy8RNDHpw47jxc3vHrTbLbSmvc6Dhfl3/Be7Ty1NOj8GtcLCHa+1vTAekeQa+UR500reV38phFzzfcM2AF7OCAIenQWJC8I6b7EFNH0sb6WvDLMji/uu2+4reV3zSB4+j9A2HmbKz8vY/Tgslc53idgB+yOAvEEgQTofP3pY/1COucJJM35MaL3Lr+uFS8YK7U0/9b3/wHCznPjndaoc7lFmnr+Ly1l03x/gB2wu4qkWTRB/s9ro9Umc25aprkdXVqnffJYeHJZhpovHvg2S1yhBQl79zwSqbjaFRQ/wSgueaWrHQE7YHcVSZBwN1yLx3hf2NVOv43HZjnK/HbbfLrND+eLcXCLF45oSF+yBdLy24BhNx7DTYw13rvAf9zfb8lbm3sD7IBdSCgiYpL9TnndzY47pZg6N4Z/OgTZ5loHLs/na1Wq7Lkn2HsNGHae+jpz1nmCi1km1nfbCTNNwAN2wB4sAE0Cs68Aumj69DqrZm0/Vx77jnMee68ikZVtjLXpXIJY9vltI5SgYec16rbdaVsO7U7UJrPC6+0B9jY2FNZr8L/VZinp8saPuT42Y3HzxhHW1VbsYBSKZtdqwXr3EGDnrsZsxn1NfBP8yr6fOVeEFjED9uCBtdOjyHE9YO+9mmZe2mPq1f6dm96P3ysmZt4oIXfS/lqXz1SLF4g3QBQxhut3woCdA3VP/EDoUSRv1NhuVpxdvgE7YA9G+BYPYic283h5zXuIqlOuYBpN1BWvF85f5fHvOa7tZiY4t/psa2TfzJ/we0iw89TX2nTBzK7t+8z5nUKtHvN+ADtgF4bJFI2vd15bLn3MVsDWE1Mv/ENqK+PSqrcQzxJze8159+v933dIsHNTnkF2e01s/6LUPQB2wC4lGF+gG5skfM1Nw8Z5Y8JLf/upmvZ56KKZoa1C1588+Dv/9x0W7N3zjL3ZJrbfRfZ/X5R+lKgK7JNP/5LKmz4R/l9UKxZJtGqt2k18n3122HmKpknqNK+d7qEQ+TGc00KO5vWpOkOlVW/zlEY9XyHCXk/DQxnY/VYV2A37VGfm5vGH+G63Yo9d+UR9PNGwu61zXgeRaG63Vo9CnzkvMFCHN2M48nfAbi30y5/D3rK5TZKhHDIGUnnUUBTgJxZ2Xs+dJ2uIvIxdR30YiTcyFHnxWPTC4uu8Aw/P3lB2xcXXixR7ZN8B7D4g8lPb8d7jQs3r2UkqrXlfg4hk0+VHa7wOnchrhueAC2y11DYPgL3BToBdLgCYSM9e7L+WeLUVkdfc0NhFDSJqC5pLpTV5wGXZqsuZqc2Uqbz2A97SA+wN5QbYATtx5Fv0VdkjOIjGBfbispuIB52IvDwvPQ3YAbuLDp0cVfI8e98imh5Ya8w64z6U0x8H1gJbVaZnAU0d63NMr56XS09TccXrGoTrZKT6ud6FNH3yQdc0ZgY3yl/bh4jq+Wu6RmnNe1zzymXCgVS7azge779W6Pr1cnfRg9/vTZ94wNt9NJWb4z37+G7yYPdRGGEVMq4r19xEeYVTXoAdlYPS3gjgBwc+YAfsgF0TDQB2TQwNDxmch4xrWQJ2wA7ProkGALsmho6rN0K+g2uRAHbADs+uiQYAuyaGhocMzkPGtSwBO2CHZ9dEA/awb/wURKCJCOLqqZBvudaKPew7vg3YATs0kCAN2MJeOOJt5RbUtnK1LcoL5RWVBmxhz6fPUX75a1GzJ6hmj0pUSEe9CoxZtoW9Upmg7MDO4GaFARpUnNBAZzTQt9Bg2QH2Ck2Ui1Q4+Ccq9F7dmUxCHCh3aMCfBpjdg38yWHaEvVKpEP8VT20iXpyh0B3ARgcwnj/jofxQfkIa6DKYZXZNjoVg5y+XM2ep9OJKym+5gwrLXye1Mwj6cOr14WCTBNqkZ4HBJjPKrDKzJuj8Lgy79Uf4PNfiQTmgHOKkAcB+uasSJ6Mhr6hkvGgAsAP2hqaeFxHhN/GofAA7YAfsmmgAsGtiaHjfeHjfMO0E2AE7PLsmGgDsmhg6TI+Ba8ej1QDYATs8uyYaAOyaGBreNx7eN0w7AXbADs+uiQYAuyaGDtNj4NrxaDUAdsAOz66JBgC7JoaG942H9w3TToAdsMOza6IBwK6JocP0GLh2PFoNgB2ww7NrogHAromh4X3j4X3DtBNgB+zw7JpoALBrYugwPQauHY9WA2AH7PDsmmgAsGtiaHjfeHjfMO0E2AE7PLsmGvh/X1QBQ2bDgw8AAAAASUVORK5CYII=;" vertex="1" parent="1">
          <mxGeometry x="240" y="280" width="30" height="41.24" as="geometry" />
        </mxCell>
        <mxCell id="p96NarCAE7JXpdNmkWpx-25" value="" style="sketch=0;html=1;aspect=fixed;strokeColor=none;shadow=0;fillColor=#3B8DF1;verticalAlign=top;labelPosition=center;verticalLabelPosition=bottom;shape=mxgraph.gcp2.gear" vertex="1" parent="1">
          <mxGeometry x="300" y="276.24" width="45" height="45" as="geometry" />
        </mxCell>
        <mxCell id="p96NarCAE7JXpdNmkWpx-26" value="Transformation" style="text;html=1;strokeColor=none;fillColor=none;align=center;verticalAlign=middle;whiteSpace=wrap;rounded=0;" vertex="1" parent="1">
          <mxGeometry x="300" y="315" width="60" height="30" as="geometry" />
        </mxCell>
        <mxCell id="p96NarCAE7JXpdNmkWpx-27" value="" style="shape=flexArrow;endArrow=classic;html=1;rounded=0;fillColor=#cfc9c9;gradientColor=none;strokeColor=none;shadow=1;" edge="1" parent="1">
          <mxGeometry width="50" height="50" relative="1" as="geometry">
            <mxPoint x="375" y="327" as="sourcePoint" />
            <mxPoint x="435" y="326.5" as="targetPoint" />
          </mxGeometry>
        </mxCell>
        <mxCell id="p96NarCAE7JXpdNmkWpx-28" value="" style="shape=image;verticalLabelPosition=bottom;labelBackgroundColor=default;verticalAlign=top;aspect=fixed;imageAspect=0;image=https://d21buns5ku92am.cloudfront.net/69466/images/397954-JET-Logo-Orange-Secondary-Horizontal-Stacked-RGB-5e8421-medium-1627476396.png;" vertex="1" parent="1">
          <mxGeometry x="48" y="20" width="118.34" height="50" as="geometry" />
        </mxCell>
        <mxCell id="p96NarCAE7JXpdNmkWpx-29" value="&lt;font color=&quot;#ffffff&quot;&gt;Workday FInancials&lt;/font&gt;" style="shape=cylinder3;whiteSpace=wrap;html=1;boundedLbl=1;backgroundOutline=1;size=15;fillColor=#fa6800;fontColor=#000000;strokeColor=#C73500;shadow=1;" vertex="1" parent="1">
          <mxGeometry x="70" y="705" width="100" height="80" as="geometry" />
        </mxCell>
        <mxCell id="p96NarCAE7JXpdNmkWpx-31" value="" style="shape=flexArrow;endArrow=classic;html=1;rounded=0;fillColor=#cfc9c9;gradientColor=none;strokeColor=none;shadow=1;" edge="1" parent="1">
          <mxGeometry width="50" height="50" relative="1" as="geometry">
            <mxPoint x="172" y="745" as="sourcePoint" />
            <mxPoint x="312" y="744.5" as="targetPoint" />
          </mxGeometry>
        </mxCell>
        <mxCell id="p96NarCAE7JXpdNmkWpx-32" value="Royal Bank of Canada" style="shape=cylinder3;whiteSpace=wrap;html=1;boundedLbl=1;backgroundOutline=1;size=15;fillColor=#76608a;fontColor=#ffffff;strokeColor=#432D57;" vertex="1" parent="1">
          <mxGeometry x="490" y="710" width="100" height="70" as="geometry" />
        </mxCell>
        <mxCell id="p96NarCAE7JXpdNmkWpx-39" value="&lt;font style=&quot;font-size: 11px;&quot;&gt;CSV Payments File&lt;/font&gt;" style="text;html=1;strokeColor=none;fillColor=none;align=center;verticalAlign=middle;whiteSpace=wrap;rounded=0;" vertex="1" parent="1">
          <mxGeometry x="367" y="690" width="100" height="30" as="geometry" />
        </mxCell>
        <mxCell id="p96NarCAE7JXpdNmkWpx-40" value="&lt;font style=&quot;font-size: 10px;&quot;&gt;ISO Bank Payment Files&lt;/font&gt;" style="text;html=1;strokeColor=none;fillColor=none;align=center;verticalAlign=middle;whiteSpace=wrap;rounded=0;" vertex="1" parent="1">
          <mxGeometry x="480" y="666.24" width="85" height="30" as="geometry" />
        </mxCell>
        <mxCell id="p96NarCAE7JXpdNmkWpx-43" value="&lt;font style=&quot;font-size: 11px;&quot;&gt;ACH CCD Payment File&lt;/font&gt;" style="text;html=1;strokeColor=none;fillColor=#FFFFCC;align=center;verticalAlign=middle;whiteSpace=wrap;rounded=0;" vertex="1" parent="1">
          <mxGeometry x="172" y="705" width="90" height="30" as="geometry" />
        </mxCell>
        <mxCell id="p96NarCAE7JXpdNmkWpx-45" value="" style="sketch=0;html=1;aspect=fixed;strokeColor=none;shadow=0;fillColor=#3B8DF1;verticalAlign=top;labelPosition=center;verticalLabelPosition=bottom;shape=mxgraph.gcp2.gear" vertex="1" parent="1">
          <mxGeometry x="322" y="696.24" width="45" height="45" as="geometry" />
        </mxCell>
        <mxCell id="p96NarCAE7JXpdNmkWpx-46" value="Transformation" style="text;html=1;strokeColor=none;fillColor=none;align=center;verticalAlign=middle;whiteSpace=wrap;rounded=0;" vertex="1" parent="1">
          <mxGeometry x="322" y="735" width="60" height="30" as="geometry" />
        </mxCell>
        <mxCell id="p96NarCAE7JXpdNmkWpx-47" value="" style="shape=flexArrow;endArrow=classic;html=1;rounded=0;fillColor=#cfc9c9;gradientColor=none;strokeColor=none;shadow=1;" edge="1" parent="1">
          <mxGeometry width="50" height="50" relative="1" as="geometry">
            <mxPoint x="397" y="747" as="sourcePoint" />
            <mxPoint x="457" y="746.5" as="targetPoint" />
          </mxGeometry>
        </mxCell>
        <mxCell id="p96NarCAE7JXpdNmkWpx-48" value="" style="shape=image;verticalLabelPosition=bottom;labelBackgroundColor=default;verticalAlign=top;aspect=fixed;imageAspect=0;image=data:image/png,iVBORw0KGgoAAAANSUhEUgAAAgAAAAIACAYAAAD0eNT6AAAAAXNSR0IArs4c6QAAIABJREFUeAHtnQuMJfdV5j9PsIcZ8wisJybhITbOGJF9kASMAcd2nLByEnBAhiAgEVIIChsBMWCMw0MQY54BbI+RbUBkl4cQghACCVlAQsKL8doOjkUgBJZHAjL2Ol4CmEcgEzPQx9OtnrnT3be7+v/Vra/+v5JG07dv33NP/b5T53xVt26VxOIi8AmSXiDp1ZKOSXqbpHsk/b6kP5f0N5I+KOnf+AcDaoAa6LQGqgdWL6yeWL2xemT1yuqZ1TufL6l6KQsEJkvgSZI+Q9I3S/p1SX/f6caMmcHQUQPUgKMGqqf+mqTr1ntt9VwWCKyMwLmSXi7pzZL+loHPHhw1QA1QA6PVQB01qN77MkmHVzYFeOOuCByQ9FxJP8Ze/mgbumNvgpjspVID86mBD0j6BUlXSeLIQFcjeZyVLYd5jaS/wOEz+KkBaoAamGwNvHftnILXSDo0zmjgXeZM4CPWB//DbPCT3eDZk5vPnhxaomWrGnh0bTC9TtKT5zygWDcPgQ+X9O3rZ6e2Kkji0NyoAWqAGhi3Bt4v6VslHfSMCqLOjcAVkt7NHj97/NQANUANzKYG/lTSC+c2rFifdgSeJumn2eBns8GzpzXunha84Z1QA2+V9EntxgaR5kCgvkrCd/dpYAkNjBypU2pgfzXwmKQvm8PgYh32R6A+668rTrFBwYAaoAaogb5qoI74cg2B/c3Q2Fd/iqR3MvwxP9QANUANdFsDfyjpP8VOMRIfRODFkv6Rjb7bjZ49vb729NAbvXeqgfr498pBk4QXxRGoy/ceZ/gz/KkBaoAaoAbWa+BDkr4ybpqR8J4I1BWi/pWNno2eGqAGqAFqYKEGTqzfbGhPQ4U/ziDwfQti73RIiOc4ZEgNUAPUQJ818D0ZI40sd0vg2xj+uH1qgBqgBqiBXdbAa3c7XPi7aRP4Ckl1aAc3DwNqgBqgBqiB3dRAzYxXTnu0kd0yAi+RVCd37EZw/gZO1AA1QA1QAxs18Likq5cNGZ6fJoHPkvTPDH/MDzVADVAD1MDAGviApIumOeLIajsCHyPpPQMF33B//M+eADVADVAD1MBfSvrY7YYNv58WgbMk/crEhv8HJdUVp960dlvK+jbCN0t6laQvX/v9S/kHA2qAGui0BqoHVi+snli98ZfW78ZaPXNK5qt6d80WlokT+IYJFE6dQPJ/1grmBknP417UE68Y0oMABKZGoO7TUrdm/661q/TdM5ETues6MiwTJvDpklbpHOtjh+9cu63w0yfMiNQgAAEIpBG4YC3h10l67wp38Gq2PCsNXC/5HpB074qK4w/Wzjmorxt+WC+wWU8IQAACKyBQff6qtX/vWFGvf/vaUYnKgWViBF69goJ4aP2+0nw2NLFiIB0IQGDWBGoIv0zS/1tB369zFlgmROApkv5mxEKo+wncIumjJsSAVCAAAQj0RuCj187Qv3Xke7z8taTzegM95fX9yRGH/yOSPnfKMMgNAhCAQGcE6na+j444B97QGd/Jru5/HvEM0d+W9NTJkiAxCEAAAv0S+HhJd49kAuoo8Kf2i3o6a/6zIwn+y5IOTWe1yQQCEIAABBYIHJT0xpFmwk8tvDcPRybwDEl1vWb3BSN+QtKTRl433g4CEIAABPZOoHr1/xhhLtR9ZvjK9971afaKGszu4f9zfO2jmV4EggAEIDAGgfqWwM+PMB9+dIyV4T3OJFCf97gv+vMbks458635DQQgAAEITJxAfRzwm2YT8C+cF7aaKvgWs7B/Jqm+YsICAQhAAAKZBJ48wo3hrstEk511XX3Pdfj/uKS6nTALBCAAAQhkE6jb+TqPFr8rG09e9iWoa/hX3G/MQ0LGEIAABCCwDYG626BzZjx7m/fl1wYCP2IU8/e5pr9BMUJCAAIQWB2Buk/L7xnnxk2rW7W+3rnO7nRd8aku7vDZfeFkbSEAAQh0QeBS40Xj6p4E3BNmhDJ6jtHF1ddGWCAAAQhAYJ4E3mScH582T2TTWqs649LxWc4JSWUuWCAAAQhAYJ4EnmU8CvAN80Q2rbV6m8kAvHVaq0k2EIAABCBgIMAMMUAdI2SdyPGYyQC8eIwV4D0gAAEIQGClBK4yzZC/5wRyr64Xm4SrEzjKXLBAAAIQgMC8CZwt6X2mWVJfUWcxEXilSbQfNuVLWAhAAAIQmB6BY6ZZ8orprep8MvpBk2jPnw8i1gQCEIAABJYQuNI0S75/yfvy9D4IvMUgWt3M4dA+cuKlEIAABCCQReCwpOr9rb9R9uYsDFnZ/l+DYL+VhYBsIQABCECgAYH/bZgnf9QgL0JsQaBO3PiQQTA+/98CNr+CAAQgMHMCNxvmSd1IjhPKDYXzcQax6vDPqwy5EhICEIAABKZN4NWmmXJk2qudmd1Rk1iXZeIgawhAAAIQ2AeBK0wz5en7yImXbkOgbrfY+oSNinfBNu/HryEAAQhAYL4EXDuVdblhlsYEak/dYQCe0jhPwkEAAhCAwPQJuD5Wfu70Vz0vw88zGYD6OggLBCAAAQj0ReBc00x5UV8Yx1nbLzaJxT2cx9GPd4EABCAwJQLV+x1HlWtWsTQm8FKTWI3TJBwEIAABCIQQcBiAmlUsjQlgABoDJRwEIACBzglgAEIKAAMQIhRpQgACEAghgAEIEQoDECIUaUIAAhAIIYABCBEKAxAiFGlCAAIQCCGAAQgRCgMQIhRpQgACEAghgAEIEQoDECIUaUIAAhAIIYABCBEKAxAiFGlCAAIQCCGAAQgRCgMQIhRpQgACEAghgAEIEQoDECIUaUIAAhAIIYABCBEKAxAiFGlCAAIQCCGAAQgRCgMQIhRpQgACEAghgAEIEQoDECIUaUIAAhAIIYABCBEKAxAiFGlCAAIQCCGAAQgRCgMQIhRpQgACEAghgAEIEQoDECIUaUIAAhAIIYABCBEKAxAiFGlCAAIQCCGAAQgRCgMQIhRpQgACEAghgAEIEQoDECIUaUIAAhAIIYABCBEKAxAiFGlCAAIQCCGAAQgRCgMQIhRpQgACEAghgAEIEQoDECIUaUIAAhAIIYABCBEKAxAiFGlCAAIQCCGAAQgRCgMQIhRpQgACEAghgAEIEQoDECIUaUIAAhAIIYABCBEKAxAiFGlCAAIQCCGAAQgRCgMQIhRpQgACEAghgAEIEQoDECIUaUIAAhAIIYABCBEKAxAiFGlCAAIQCCGAAQgRCgMQIhRpQgACEAghgAEIEQoDECIUaUIAAhAIIYABCBEKAxAiFGlCAAIQCCGAAQgRCgMQIhRpQgACEAghgAEIEQoDECIUaUIAAhAIIYABCBEKAxAiFGlCAAIQCCGAAQgRCgMQIhRpQgACEAghgAEIEQoDECIUaUIAAhAIIYABCBEKAxAiFGlCAAIQCCGAAQgRCgMQIhRpQgACEAghgAEIEQoDECIUaUIAAhAIIYABCBEKAxAiFGlCAAIQCCGAAQgRCgMQIhRpQgACEAghgAEIEQoDECIUaUIAAhAIIYABCBEKAxAiFGlCAAIQCCGAAQgRCgMQIhRpQgACEAghgAEIEQoDECIUaUIAAhAIIYABCBEKAxAiFGlCAAIQCCGAAQgRCgMQIhRpQgACEAghgAEIEQoDECIUaUIAAhAIIYABCBEKAxAiFGlCAAIQCCGAAQgRCgMQIhRpQgACEAghgAEIEQoDECIUaUIAAhAIIYABCBEKAxAiFGlCAAIQCCGAAQgRCgMQIhRpQgACEAghgAEIEQoDECIUaUIAAhAIIYABCBEKAxAiFGlCAAIQCCGAAQgRCgMQIhRpQgACEAghgAEIEQoDECIUaUIAAhAIIYABCBEKAxAiFGlCAAIQCCGAAQgRCgMQIhRpQgACEAghgAEIEQoDECIUaUIAAhAIIYABCBEKAxAiFGlCAAIQCCGAAQgRCgMQIhRpQgACEAghgAEIEQoDECIUaUIAAhAIIYABCBEKAxAiFGlCAAIQCCGAAQgRCgMQIhRpQgACEAghgAEIEQoDECIUaUIAAhAIIYABCBEKAxAiFGlCAAIQCCGAAQgRCgMQIhRpQgACEAghgAEIEQoDECIUaUIAAhAIIYABCBEKAxAiFGlCAAIQCCGAAQgRCgMQIhRpQgACEAghgAEIEQoDECIUaUIAAhAIIYABCBEKAxAiFGlCAAIQCCGAAQgRCgMQIhRpQgACEAghgAEIEQoDECIUaUIAAhAIIYABCBEKAxAiFGlCAAIQCCGAAQgRCgMQIhRpQgACEAghgAEIEQoDECIUaUIAAhAIIYABCBEKAxAiFGlCAAIQCCGAAQgRCgMQIhRpQgACEAghgAEIEQoDECIUaUIAAhAIIYABCBEKAxAiFGlCAAIQCCGAAQgRCgMQIhRpQgACEAghgAEIEQoDECIUaUIAAhAIIYABCBEKAxAiFGlCAAIQCCGAAQgRCgMQIhRpQgACEAghgAEIEQoDECIUaUIAAhAIIYABCBEKAxAiFGlCAAIQCCGAAQgRCgMQIhRpQgACEAghgAEIEQoDECIUaUIAAhAIIYABCBEKAxAiFGlCAAIQCCGAAQgRCgMQIhRpQgACEAghgAEIEQoDECIUaUIAAhAIIYABCBEKAxAiFGlCAAIQCCGAAQgRCgMQIhRpQgACEAghgAEIEQoDECIUaUIAAhAIIYABCBEKAxAiFGlCAAIQCCGAAQgRCgMQIhRpQgACEAghgAEIEQoDECIUaUIAAhAIIYABCBEKAxAiFGlCAAIQCCGAAQgRCgMQIhRpQgACEAghgAEIEQoDECIUaUIAAhAIIYABCBEKAxAiFGlCAAIQCCGAAQgRCgMQIhRpQgACEAghgAEIEQoDECIUaUIAAhAIIYABCBEKAxAiFGlCAAIQCCGAAQgRCgMQIhRpQgACEAghgAEIEQoDECIUaUIAAhAIIYABCBEKAxAiFGlCAAIQCCGAAQgRCgMQIhRpQgACEAghgAEIEQoDECIUaUIAAhAIIYABCBEKAxAiFGlCAAIQCCGAAQgRCgMQIhRpQgACEAghgAEIEQoDECIUaUIAAhAIIYABCBEKAxAiFGlCAAIQCCGAAQgRCgOws1AHJB2VdJmkYtXbvy+R9BpJ3yHp9ZK+VdJXdcihdP8CSZ8l6Sk7l8ysnu29/sfY3qu3VI85a0aVgwEIEbMK3CFWyOpvm+aFku6Q9LCJj4M5MT21vMj1hKT7JV0n6dxtKyj7Cep/nFo6tbYeWjOXt6+bgezq8bCrWcXSmAAG4HSgByXdurane5zBbzGGpza8OfxcBnFOjYn69wyvvdR69Z6bJZ1zemuKerSX9d3t385pO5uMmBiATSmOSLqbwc/g32MN1BGBGzfLKPYn6n/1w//UYXiXpPNCq+nU9Wj1MwbAUAwYgJNQz5Z05x4bf6vCJs60Gu9QPeojgdSF+p9mDdYOSR2VSVuGbkM7vQ4DYKgCDMBJqMcY/uz577MGHpd0qWEbHSMk9T9NA1ADsT4OSFt2GuRDn8MAGKoAAyDVCU985j/dBji0YazidW8PPJub+p927Vdvqm8JJC2ObQ8DYKgADMDJs/0dBUvMaTdWlz5XGLZTZ8j6touLBXHbsL3NWQCG2A7dMQAGoXo3APU9Z77q16ZJOTb6xJi3GLZTV0jqP6P26yuCSdcJcGy3GABDF+jdANShNUexErNfrg8YtlNXSOo/p04vcBWBIa6j/2EADEL1bgDqcK2jWInZL9f3GbZTV0jqP6dOL3cVgSGuo/9hAAxC9W4AvggDgAFqXAN1XYCU5arG6+5o/MQ8aVJKq5TFoRkGwKB+7wbAtf6ODYCYOXtrhk3VEvJiDECMAb7IUgGeoI5ehQEwaOUagIZULSFd6+/YAIiJAWi9EZy/dqOnOmJBbU2bQWlUV2pMWRz1hAEwqO8agIZULSFd6+/YAIg57SZ9qj6WYjUFrRsbnZo7P0+Px30m7V1hHTWEATCo5RqAhlQtIV3r79gAiDm9xrydJpZiNQWtSxhvtx78fhpsrjVp7wrrqBsMgEEt1wA0pGoJ6Vp/xwZAzGk0493oYClWU9BDkh7EBEzWBNU1AA6btHeF3c02ste/wQAY1HINQEOqlpCu9d9rcfP3OcN9N1pZitUYtLYDzgWYXg2WJlcbdXeF3s02ste/wQAY1HINQEOqlpCu9d9rcfP302u++9HEUqzmoHVL4/2sM69tz+8Gs+au8I5awAAY1HINQEOqlpCu9XdsAMRs32BdTC3FOkLQayTVXQ1dXIi7O7alwfUj6O16C4fOGACDWq4BaEjVEtK1/o4NgJi7a55T4GQp1pGC1i2N78UErMwE3SPpkpG0dr2NYxvEABjUcg1AQ6qWkK71d2wAxMQAWDaCLYLWjWfqMsHHJNW9DR7BENgMQbEtxnUTqbrcb9JNf7YonSd+5ehVGIDtaO/j964BuI+URn0p6+8ZqqOKuI83613/faDjpRDYlgAGYFs003qi9wbI+mMAHM1qWls52UBgXAKObap6NUtjAgxABqBjY21cprZwvde/DSyBuybg6CkYAENJ9d4AWX8MkKNZGTZVQkIghoBjm8IAGORnADIAHRuroVQtIXuvfwtUgnZPwNFTMACGsuq9AbL+GCBHszJsqoSEQAwBxzaFATDIzwBkADo2VkOpWkL2Xv8WqATtnoCjp2AADGXVewNk/TFAjmZl2FQJCYEYAo5tCgNgkJ8ByAB0bKyGUrWE7L3+LVAJ2j0BR0/BABjKqvcGyPpjgBzNyrCpEhICMQQc2xQGwCB/7wPwiwyXOK1beKYs6N/eACXpn1Kn5JlFAAMQolfvA6Cuvd26WOva3ikL+vetf0qdkmcWgdY9teJVr2JpTKD3AXDUYADe0VgjZzj0b28AkvR31hax+yWAAQjRvvcBUHfeerCxCbgpRPtKE/371j+oVEk1iAAGIESs3gdAyXR7YwPwvBDtK03071v/oFIl1SACGIAQsRgA0tMlfbCRCbgv7H7e6N+3/iFtijTDCGAAQgRjAJwU6uYGBuBxSZ8TovtGmujft/4bdcD/EGhJAAPQkqYxFgPgJNyzJd25TxPwjUadXKHRv2/9XXVF3L4JYABC9GcAbAp1nqS7BpiA+t73DZthon5C/025etR/c+35CQLtCGAA2rG0RmIAnI73HEn1ccDxXRqBv5J09ekhoh6h/+ly9ab/6WvPIwi0IYABaMPRHoUBsDXiZ0i6TVIN+MVirj3+t0u6VtLhrV8e81v031qqXvTfeu35LQT2R2CxZ7Z4XL2KpTEBBsDOQOs6ATUMLpP0EkkXrxmDIzu/JOpZ9N9Zrrnrv/Pa8ywEhhFoMfAXY2AAhmmx46sYADvimf2T6D97iVlBCIxOYHF4t3iMATDIyAAwQA0Kif5BYpEqBEIItBj4izEwAAbxGQAGqEEh0T9ILFKFQAiBxeHd4jEGwCA+A8AANSgk+geJRaoQCCHQYuAvxsAAGMRnABigBoVE/yCxSBUCIQQWh3eLxxgAg/gMAAPUoJDoHyQWqUIghECLgb8YAwNgEJ8BYIAaFBL9g8QiVQiEEFgc3i0eYwAM4jMADFCDQqJ/kFikCoEQAi0G/mIMDIBBfAaAAWpQSPQPEotUIRBCYHF4t3iMATCIzwAwQA0Kif5BYpEqBEIItBj4izEwAAbxGQAGqEEh0T9ILFKFQAiBxeHd4jEGwCA+A8AANSgk+geJRaoQCCHQYuAvxsAAGMRnABigBoVE/yCxSBUCIQQWh3eLxxgAg/gMAAPUoJDoHyQWqUIghECLgb8YAwNgEJ8BYIAaFBL9g8QiVQiEEFgc3i0eYwAM4jMADFCDQqJ/kFikCoEQAi0G/mIMDIBBfAaAAWpQSPQPEotUIRBCYHF4t3iMATCIzwAwQA0Kif5BYpEqBEIItBj4izEwAAbxGQAGqEEh0T9ILFKFQAiBxeHd4jEGwCA+A8AANSgk+geJRaoQCCHQYuAvxsAAGMRnABigBoVE/yCxVpDqAUlHJV0mqWqFf+0ZFNtifNYK9HW95eLwbvG4ao+lMQEGQGOgYeHQP0ywkdK9UNIdkh6W1KJ5E2M5x4ck3b5uBkaS2fY2Dr0xAAa5GAAGqEEh0T9IrBFSPSjpVknHGfwrMz7F/mZJ54ygt+stMAAuso3jMgAaAw0Lh/5hghnTPSLpbgb/ygb/4tC8S9J5Rr2doRfXpcXj6lUsjQkwABoDDQuH/mGCmdI9W9KdDP/JDP+NgVmGrI7KpC0b+bf8HwNgqAIGgAFqUEj0DxLLmOoxhv/khv/G8KyPA9KWjdxb/o8BMFQBA8AANSgk+geJZUq1TvjjM//lJ+m1HGZ7iVXa1LcEkpa9rN9u/xYDYKgABoABalBI9A8Sy5Rqne2/2ybM362G1W0m7V1hHXWCATCoxQAwQA0Kif5BYhlSre/581W/1Qz1vQzJ+opg0nUC9rJuu/1bDIChATAADFCDQqJ/kFiGVOvQ8m4bMH+3WlYXGPR3hXTUCgbAoBYDwAA1KCT6B4llSPUKDECMAbrcoL8rJAbARbZxXAZAY6Bh4dA/TLDG6V6FAYgxAKVVyoIBCFGKARAilClN9DeBDQl7MQYgxgBcFFJTlSYGIEQsBkCIUKY00d8ENiTs+ZJOmBq2Ywj0GrM0qis1piwOnapXsTQmwABoDDQsHPqHCWZI934MgGWPteUQvM+guzNky3XfiIUBMCjGADBADQqJ/kFimVK9DgMweQNwrUl7V9iNod3yfwyAQS0GgAFqUEj0DxLLlOohSQ9iAiZrAuoaAIdN2rvCthz8G7EwAAa1GAAGqEEh0T9ILGOqVQecC+A5eW1jgA35vzS52qi7K/SQdV32GgyAQS0GgAFqUEj0DxLLnOqNHAWY3FGAG8yau8IvG+ZDnscAGNRiABigBoVE/yCxRkj1GkmPYwRWbgRKg+tH0Nv1FkMG/LLXYAAMajEADFCDQqJ/kFgjpXqppHsxASszAfdIumQkrV1vs2yYD3keA2BQiwFggBoUEv2DxBox1brxTF0m+JikByQ9giGwGYJiW4xvkVSX+0266c92JTlkwC97DQZgO9r7+D0DYB/wZvBS9J+BiKwCBCZGYNkwH/I8BsAgMgPAADUoJPoHiUWqEAghMGTAL3sNBsAgPgPAADUoJPoHiUWqEAghsGyYD3keA2AQnwFggBoUEv2DxCJVCIQQGDLgl70GA2AQnwFggBoUEv2DxCJVCIQQWDbMhzyPATCIzwAwQA0Kif5BYpEqBEIIDBnwy16DATCIzwAwQA0Kif5BYpEqBEIILBvmQ57HABjEZwAYoAaFRP8gsUgVAiEEhgz4Za/BABjEZwAYoAaFRP8gsUgVAiEElg3zIc9jAAziMwAMUINCon+QWKQKgRACQwb8stdgAAziMwAMUINCon+QWKQKgRACy4b5kOcxAAbxGQAGqEEh0T9ILFKFQAiBIQN+2WswAAbxGQAGqEEh0T9ILFKFQAiBZcN8yPMYAIP4DAAD1KCQ6B8kFqlCIITAkAG/7DUYAIP4DAAD1KCQ6B8kFqlCIITAsmE+5HkMgEF8BoABalBI9A8Si1QhEEJgyIBf9hoMgEF8BoABalBI9A8Si1QhEEJg2TAf8jwGwCA+A8AANSgk+geJRaoQCCEwZMAvew0GwCA+A8AANSgk+geJRaoQCCGwbJgPeR4DYBCfAWCAGhQS/YPEIlUIhBAYMuCXvQYDYBCfAWCAGhQS/YPEIlUIhBBYNsyHPI8BMIjPADBADQqJ/kFikSoEQggMGfDLXoMBMIjPADBADQqJ/kFikSoEQggsG+ZDnscAGMRnABigBoVE/yCxSBUCIQSGDPhlr8EAGMRnABigBoVE/yCxSBUCIQSWDfMhz2MADOIzAAxQg0Kif5BYpAqBEAJDBvyy12AADOIzAAxQg0Kif5BYpAqBEALLhvmQ5zEABvEZAAaoQSHRP0gsUoVACIEhA37ZazAABvEZAAaoQSHRP0gsUoVACIFlw3zI8xgAg/gMAAPUoJDoHyQWqUIghMCQAb/sNRgAg/gMAAPUoJDoHyQWqUIghMCyYT7keQyAQXwGgAFqUEj0DxKLVCEQQmDIgF/2GgyAQXwGgAFqUEj0DxKLVCEQQmDZMB/yPAbAID4DwAA1KCT6B4lFqhAIITBkwC97DQbAID4DwAA1KCT6B4lFqhAIIbBsmA95HgNgEJ8BYIAaFBL9g8QiVQiEEBgy4Je9BgNgEJ8BYIAaFBL9g8QiVQiEEFg2zIc8jwEwiM8AMEANCon+QWKRKgRCCAwZ8MtegwEwiM8AMEANCon+QWKRKgRCCCwb5kOexwAYxGcAGKAGhUT/ILFIFQIhBIYM+GWvwQAYxGcAGKAGhUT/ILFIFQIhBJYN8yHPYwAM4jMADFCDQqJ/kFikCoEQAkMG/LLXYAAM4jMADFBXFPJcSf9F0oskla67+XeTpGUb3pDnd/PeG39zmaSjks5aETfednsCB9a1KY029OL/tizmWP9Desay11TdsTQmUFCXgR/yfOM0CbcDgS+Q9BZJHzBpOUT/Ia95SNLt6wNnh9XlqREIXCjpDkkPh9fUkDpc1WvmVP8OhhgAw4aPATBAHSlk7TX/zgwb9HFJN0s6ZySOvM0mgYOSbpVUGjiaODGXc51D/Tt0xgBsbqfNfsIANEM5aqArJL1/5k36LknnjUq17zc7IunumdeUYzC5YibXv4MJBsDQnzAABqjmkM+U9FgnjboGUu2VsngJnC3pzk5qyjGcXDFT69/BAwNg6AEYAANUY8hDkt7TWaOujwNYvASOdVZTjgHliplY/w4WGABDD8AAGKAaQ762w0Zdn4nW+Q4sHgJ1wh+f+S//bN4x1HYTM7H+d7Nee/0bDIBh+8cAGKCaQj5J0qMdGoBqFLeZmBL25Nn+e23G/P24hiGt/h31gQEwdCsMgAGqKeTlnQ7/aib1FSmuE9C+sOp7/nzVb9xhPmQ4ptX/kHWNIX4KAAAU/klEQVRc9hoMQPvt/4mLeywDP+R5Q6rdh/y2jg1A1eAF3VdAewD10cqQ7ZvXjM8tqf4d9YEBaL/9YwAMTF0h6yI5jg0rJWYdAWFpS6C+Tpqif+95JtW/QysMQNtt/4lofARggGoK+TOdN+urTFx7DltMHc2amO25JtW/Q38MgKFTYQAMUE0hf6jzZn2RiWvPYS/uvKYcg8oVM6n+HQwwAIZOhQEwQDWF/NqOm/WJtW8C1JXqWNoSOF9SsXU0bGK245pW/w7tMQBtt/0nomEADFBNIT+540Z9n4kpYaX7O64rx6ByxEyrfwcDDIChW2EADFCNIX+302Z9rZFp76Gv67SmHEPKFTOt/h0cMACGToUBMEA1hryyw2Zd34E+bGTae+i6vPSDHdaVY0g5YibWv4MDBsDQqTAABqjmkD/fUbOuzz6vNvMkvJ74OjDnArT7zL7VAEyt/1brf2ocDIChU2EADFDNIc+V9I5OTMANZpaE3yRwYyc1depQmfrPqfXv4IoB2NxWm/2EAWiGctRAHynpLTNu2I9Lun5UorxZEbhGUrF3NHBi7p5rev07tMYAGHoUBsAAdaSQdXOgr5vhDYLukXTJSAx5mzMJXCrpXkzAykzQHOofA3DmdjXJ32AAJinLnpKqowEvl/RGSe+W9A9hzfsRSQ9IukVSXe6Um/7sSX7LH5cGdZngY+valEaOpk5MaY7179CVIwCGTR0DYIBKSAhAAAIdE8AAhIiPAQgRijQhAAEIhBDAAIQIhQEIEYo0IQABCIQQwACECIUBCBGKNCEAAQiEEMAAhAiFAQgRijQhAAEIhBDAAIQIhQEIEYo0IQABCIQQwACECIUBCBGKNCEAAQiEEMAAhAiFAQgRijQhAAEIhBDAAIQIhQEIEYo0IQABCIQQwACECIUBCBGKNCEAAQiEEMAAhAiFAQgRijQhAAEIhBDAAIQIhQEIEYo0IQABCIQQwACECIUBCBGKNCEAAQiEEMAAhAiFAQgRijQhAAEIhBDAAIQIhQEIEYo0IQABCIQQwACECIUBCBGKNCEAAQiEEMAAhAiFAQgRijQhAAEIhBDAAIQIhQEIEYo0IQABCIQQwACECIUBCBGKNCEAAQiEEMAAhAiFAQgRijQhAAEIhBDAAIQIhQEIEYo0IQABCIQQwACECIUBCBGKNCEAAQiEEMAAhAiFAQgRijQhAAEIhBDAAIQIhQEIEYo0IQABCIQQwACECIUBCBGKNCEAAQiEEMAAhAiFAQgRijQhAAEIhBDAAIQIhQEIEYo0IQABCIQQwACECIUBCBGKNCEAAQiEEMAAhAiFAQgRijQhAAEIhBDAAIQIhQEIEYo0IQABCIQQwACECIUBCBGKNCEAAQiEEMAAhAiFAQgRijQhAAEIhBDAAIQIhQEIEYo0IQABCIQQwACECIUBCBGKNCEAAQiEEMAAhAiFAQgRijQhAAEIhBDAAIQIhQEIEYo0IQABCIQQwACECIUBCBGKNCEAAQiEEMAAhAiFAQgRijQhAAEIhBDAAIQIhQEIEYo0IQABCIQQwACECIUBCBGKNCEAAQiEEMAAhAiFAQgRijQhAAEIhBDAAIQIhQEIEYo0IQABCIQQwACECIUB2FmoA5KOSrpMUrHiHwyoAWqgZQ1Ub6kec9bOrSjqWQxAiFxVyA6xQlZ/2zQvlHSHpIdNfBzMiempZbjCdYwaeEjS7etmYNvGFPKEg1fNKpbGBDAApwM9KOlWSccZ/BZj6GgMxGRAz6kGqvfcLOmc01tT1COHHhgAQwlgADahHpF0N4OfwU8NUAMTqIG7JJ232Z6ifsIAhMiFATgp1NmS7pzARu/YcIjJHjI1kFkDtUNSRyXTFke9cQTAUAUYgJNQjzH82eujBqiBCdZAfRyQtmAAQhTDAEh1wh+f+WfuITkaDTGphSnVQPWm+pZA0uLgxxEAQwVgAE6e7e8oWGIySKgBaqBFDdxm6P3OkC3WeTEGBsCgWO8GoL7nz1f9aNKLzYbH1MSUaqC+Iph0nQAHOwwABqA5gTq05ihWYsKVGqAGWtbABc27ny9gy/XeiIUBMOjV+xGAKzAAGCBqgBoIqIHLDf3fFXJjaLf8HwNgUKt3A3BVwIbfciMiFnul1EBmDVSvSlkcNYYBMKjfuwG4GAPA3h81QA0E1MBFhv7vCokBcJFtHLd3A3C+pBMBG79jgyJm5p4guvWnW/WoulJpyuKoUY4AGNTv3QAU0vsxAOwBUgPUwIRr4D5D73eGxAA46TaMjQGQrpvwhu/YkIjZ3x4kmmdrfm3Dnj9GKEe9cQTAoBwGQDok6UFMAHuA1AA1MMEaqGsAHDb0fmdIDICTbsPYGICTMIsD5wJk7yU5mg4xqYlV1kD1pKsb9vuxQjmYcQTAoB4GYBPqjRN0/44NiZgMNWogowZu2GxPUT856gsDYCgBDMDpUK+R9DhGgEPB1AA1sMIaqB50/emtKeoRBiBELgzAmUJdKuneFW78jo2HmBl7fOiETvdIuuTMthT1G0cdcwTAUAIYgK2h1o036jLBxyQ9IOkRDAF7hNQANWCogeot1WNukVSX+0266c/W3dNj4jAA29Hex+8xAPuAx0shAAEIQOAMAhwBOAPJNH+BAZimLmQFAQhAIJUABiBEOQxAiFCkCQEIQCCEAAYgRCgMQIhQpAkBCEAghAAGIEQoDECIUKQJAQhAIIQABiBEKAxAiFCkCQEIQCCEAAYgRCgMQIhQpAkBCEAghAAGIEQoDECIUKQJAQhAIIQABiBEKAxAiFCkCQEIQCCEAAYgRCgMQIhQpAkBCEAghAAGIEQoDECIUKQJAQhAIIQABiBEKAxAiFCkCQEIQCCEAAYgRCgMQIhQpAkBCEAghAAGIEQoDECIUKQJAQhAIIQABiBEKAxAiFCkCQEIQCCEAAYgRCgMQIhQpAkBCEAghAAGIEQoDECIUKQJAQhAIIQABiBEKAxAiFCkCQEIQCCEAAYgRCgMQIhQpAkBCEAghAAGIEQoDECIUKQJAQhAIIQABiBEKAxAiFCkCQEIQCCEAAYgRCgMQIhQpAkBCEAghAAGIEQoDECIUKQJAQhAIIQABiBEKAxAiFCkCQEIQCCEAAYgRCgMQIhQpAkBCEAghAAGIEQoDECIUKQJAQhAIIQABiBEKAxAiFCkCQEIQCCEAAYgRCgMQIhQpAkBCEAghAAGIEQoDECIUKQJAQhAIIQABiBEKAxAiFCkCQEIQCCEAAYgRCgMQIhQpAkBCEAghAAGIEQoDECIUKQJAQhAIIQABiBEKAxAiFCkCQEIQCCEAAYgRCgMQIhQpAkBCEAghAAGIEQoDECIUKQJAQhAIIQABiBEKAxAiFCkCQEIQCCEAAYgRCgMQIhQpAkBCEAghAAGIEQoDECIUKQJAQhAIIQABiBEKAxAiFCkCQEIQCCEAAYgRCgMQIhQpAkBCEAghAAGIEQoDECIUKQJAQhAIIQABiBEKAxAiFCkCQEIQCCEAAYgRCgMwM5CHZB0VNJlkooV/2BADVADLWugekv1mLN2bkVRz2IAQuSqQnaIFbL626Z5oaQ7JD1s4uNgTkxPLcMVrmPUwEOSbl83A9s2ppAnHLxqVrE0JoABOB3oQUm3SjrO4LcYQ0djICYDek41UL3nZknnnN6aoh459MAAGEoAA7AJ9Yikuxn8DH5qgBqYQA3cJem8zfYU9RMGIEQuDMBJoc6WdOcENnrHhkNM9pCpgcwaqB2SOiqZtjjqjSMAhirAAJyEeozhz14fNUANTLAG6uOAtAUDEKIYBkCqE/74zD9zD8nRaIhJLUypBqo31bcEkhYHP44AGCoAA3DybH9HwRKTQUINUAMtauA2Q+93hmyxzosxMAAGxXo3APU9f77qR5NebDY8piamVAP1FcGk6wQ42GEAMADNCdShNUexEhOu1AA10LIGLmje/XwBW673RiwMgEGv3o8AXIEBwABRA9RAQA1cbuj/rpAbQ7vl/xgAg1q9G4CrAjb8lhsRsdgrpQYya6B6VcriqDEMgEH93g3AxRgA9v6oAWogoAYuMvR/V0gMgIts47i9G4DzJZ0I2PgdGxQxM/cE0a0/3apH1ZVKUxZHjXIEwKB+7wagkN6PAWAPkBqgBiZcA/cZer8zJAbASbdhbAyAdN2EN3zHhkTM/vYg0Txb82sb9vwxQjnqjSMABuUwANIhSQ9iAtgDpAaogQnWQF0D4LCh9ztDYgCcdBvGxgCchFkcOBcgey/J0XSISU2ssgaqJ13dsN+PFcrBjCMABvUwAJtQb5yg+3dsSMRkqFEDGTVww2Z7ivrJUV8YAEMJYABOh3qNpMcxAhwKpgaogRXWQPWg609vTVGPMAAhcmEAzhTqUkn3rnDjd2w8xMzY40MndLpH0iVntqWo3zjqmCMAhhLAAGwNtW68UZcJPibpAUmPYAjYI6QGqAFDDVRvqR5zi6S63G/STX+27p4eE4cB2I72Pn6PAdgHPF4KAQhAAAJnEOAIwBlIpvkLDMA0dSErCEAAAqkEMAAhymEAQoQiTQhAAAIhBDAAIUJhAEKEIk0IQAACIQQwACFCYQBChCJNCEAAAiEEMAAhQmEAQoQiTQhAAAIhBDAAIUJhAEKEIk0IQAACIQQwACFCYQBChCJNCEAAAiEEMAAhQmEAQoQiTQhAAAIhBDAAIUJhAEKEIk0IQAACIQQwACFCfbHh0pYl/hwuZxkiIWlCAAIQmAyB6v0OA1CziqUxgc8ziXW4cZ6EgwAEIACB6RM41zRTXjT9Vc/L8DKTWE/JQ0HGEIAABCCwTwIfZ5opz91nXrx8CwLPNon1jC3ei19BAAIQgMC8CRw1zZRnzRvbatbOJVbd1pIFAhCAAAT6IvB8kwF4el8Yx1lb1+GaV42TPu8CAQhAAAITIvBqkwE4MqF1nE0qZ0s6bhDsptkQYkUgAAEIQGC3BG4xzJMPSvqw3SbA3+2NwB8bBLtzbynw1xCAAAQgMAMCv22YJ++eAZfJrsJbDIL9i6RDk11jEoMABCAAgdYE6uvf1ftbXwfgza0TJd4mgdcbBKsCeMHmW/ATBCAAAQjMnMCVplnyfTPnttLVe6VJNM4DWKmsvDkEIACBUQncapolrxh1LTp7s4tNoj3CiRudVRKrCwEI9EqgTih/1DRLLuoV6hjrXWdXPmYS7sVjrADvAQEIQAACKyXwEtMM+TtJT1rpmnXw5r9qEq/iskAAAhCAwLwJ/C/TDKmT1FnMBL7JJF6dDPjp5twJDwEIQAACqyNQl5Q/YZohX7+61ernnV33BCgD8Av9YGRNIQABCHRHoL6m1/qrfxvx/mt3NFewwgckvc8kYjnDS1awTrwlBCAAAQh4CdR9X1x7/w9LOsubPtE3CBwzGYBycn8gqc4SZYEABCAAgXkQqBPI32mcGz88D0wZa1Gf1W8cdnH8X+cZsEAAAhCAwDwIvNY8M7gF8Mh1UnvqjuFfMeumQ5898vrwdhCAAAQg0J7AZ0qqm/S45sW72qdMxGUE3I7uLyV97LIkeB4CEIAABCZL4GMkvdc4/MtUcMR4BfI/zezqStjflHRwBevGW0IAAhCAwP4IVO/+LfPwrxsKPXV/afLqoQR+3CxumYD62ghXdxqqEK+DAAQgMD6B+rZYfa3bddh/I+4d468a77hB4AJJHxpB5DdgAjaQ8z8EIACBSROoM/7/5whzoc4V+4+TJtFBcj8zgtDl9n5F0qEOeLKKEIAABFIJ1GH/XxxpJpTJYFkxgWdK+teRBP8dSXXuAQsEIAABCEyLwCdIumekWfC4pE+Z1ur3m00dot/4TMb9f91G8sp+UbPmEIAABCZHoO7m+v9HnAN1/hnLRAgckfT+EcWvIw4/IunJE1l/0oAABCDQI4H6mt/txkv8brVDWUbjP/QIe8rr/NUjGoCNonhE0ldIqjNOWSAAAQhAYBwC1XNfYbwvzEaP3+r/V46zirzLXghUQYz1+c9iUfyZpFdJqrNPWSAAAQhAwEOg+vxLJf3RCnb4qu+/nR0+j7Atotatgp2XfFwc/IuP/2LtjlA3SDraYmWIAQEIQAACTxC4cO2r2Deu7fXXFVoX++5Yj+uiP9zyd+IF+ZoVFsiphVhO8bslPZ+vD068YkgPAhCYGoH6yvUL1u7M+j2SfnciPf1rpgaJfM4kUPdk/qWJFMyGIagLRvzx+lUFv1/S9esfGbxs/XBWHdLiHwyoAWqgtxqoHljnb1VP/IH1Hlm9snrmRv+cwv9vPHPU8JupEqiz898zsQKaQhGTw7SaCnqgBzUw/Rqoc7w+eqrDjry2JnCRpA9gAibloml20292aIRG1MBmDfyTpOdsPWL47dQJfP5I9wpgg9ncYGABC2qAGphDDdTV/r5w6kOO/HYm8PKRLxIxh8JnHWjg1AA10HMNnJD0lTuPFp5NIfAtfBTARwHUADVADVADu6yB61KGG3nujsD37lL4nl0v685eHzVADfReA/X1bZYZEvi6Ee8c2PtGxPozSKgBaiCpBuqw/zfNcO6xSqcQ+PIJfsc0aSMhV5o6NUANzK0G6gqyX3bKnODHGRN4oaR/4CMBPg+kBqgBaqD7GnhM0n+b8bxj1bYgUNeW/j02/u43/rntybA+7J1TA7uvgXdJeuYW84FfdUDgwyUdwwRgAqgBaoAa6K4GflrS4Q7mHKu4hEB99lOHgXDOMKAGqAFqYN418HeSvmTJTODpzgg8VVI5QjZ+GFAD1AA1MM8aeKukT+xstrG6eyDwvLU78/0hRgAjRA1QA9TAbGrgTyRduYc5wJ92TOCgpLp64PtpALNpAOzRzXOPDl3Rdaca+Ov1Ww2f0/E8Y9UHEvgISddIeggjgBGgBqgBaiCmBh5d6/mv4za+AycfLzuNwKG1owF1FcH30gBiGsBOewU8x14jNTDPGniPpK+VVD2bBQJNCRyQ9Nz1rw7y8cA8GwiDAV2pgawaqG9w1QncnyvprKYdn2AQ2IZAOcy6rPCbOFeAowIcGaIGqIFRa6A+2/9FSV/K3v42E4pfj0agjgw8Z/1GEm+TVN8zZS8CBtQANUANtKmB6qnVW6+V9GxJ1XNZIDBZAk+TdIWk/752IsrNkn517XrTd0t6p6Q/Xz9qUDegoEHAgBqgBnqtgeqB9XFq9cTqjdUjq1feJOmr13toXaOFxUDg3wFIbQOnNc6SrAAAAABJRU5ErkJggg==;" vertex="1" parent="1">
          <mxGeometry x="260" y="700" width="30" height="30" as="geometry" />
        </mxCell>
        <mxCell id="p96NarCAE7JXpdNmkWpx-49" value="&lt;font style=&quot;font-size: 11px;&quot;&gt;Text File&lt;/font&gt;" style="text;html=1;strokeColor=none;fillColor=none;align=center;verticalAlign=middle;whiteSpace=wrap;rounded=0;" vertex="1" parent="1">
          <mxGeometry x="172" y="670" width="100" height="30" as="geometry" />
        </mxCell>
      </root>
    </mxGraphModel>
  </diagram>
</mxfile>
